<?xml version="1.0" encoding="utf-8" standalone="no"?>
<!DOCTYPE svg PUBLIC "-//W3C//DTD SVG 1.1//EN"
  "http://www.w3.org/Graphics/SVG/1.1/DTD/svg11.dtd">
<svg xmlns:xlink="http://www.w3.org/1999/xlink" width="1186.2pt" height="390.318361pt" viewBox="0 0 1186.2 390.318361" xmlns="http://www.w3.org/2000/svg" version="1.1">
 <metadata>
  <rdf:RDF xmlns:dc="http://purl.org/dc/elements/1.1/" xmlns:cc="http://creativecommons.org/ns#" xmlns:rdf="http://www.w3.org/1999/02/22-rdf-syntax-ns#">
   <cc:Work>
    <dc:type rdf:resource="http://purl.org/dc/dcmitype/StillImage"/>
    <dc:date>2024-12-31T16:17:17.163392</dc:date>
    <dc:format>image/svg+xml</dc:format>
    <dc:creator>
     <cc:Agent>
      <dc:title>Matplotlib v3.9.2, https://matplotlib.org/</dc:title>
     </cc:Agent>
    </dc:creator>
   </cc:Work>
  </rdf:RDF>
 </metadata>
 <defs>
  <style type="text/css">*{stroke-linejoin: round; stroke-linecap: butt}</style>
 </defs>
 <g id="figure_1">
  <g id="patch_1">
   <path d="M 0 390.318361 
L 1186.2 390.318361 
L 1186.2 0 
L 0 0 
z
" style="fill: #ffffff"/>
  </g>
  <g id="axes_1">
   <g id="patch_2">
    <path d="M 37.46343 259.884997 
L 67.72686 259.884997 
L 67.72686 219.968197 
L 37.46343 219.968197 
z
" clip-path="url(#p53192bc3ee)" style="fill: #eb7308; stroke: #000000; stroke-linejoin: miter"/>
   </g>
   <g id="patch_3">
    <path d="M 67.72686 259.884997 
L 97.990289 259.884997 
L 97.990289 219.968197 
L 67.72686 219.968197 
z
" clip-path="url(#p53192bc3ee)" style="fill: #eb7308; stroke: #000000; stroke-linejoin: miter"/>
   </g>
   <g id="patch_4">
    <path d="M 97.990289 259.884997 
L 128.253719 259.884997 
L 128.253719 219.968197 
L 97.990289 219.968197 
z
" clip-path="url(#p53192bc3ee)" style="fill: #eb7308; stroke: #000000; stroke-linejoin: miter"/>
   </g>
   <g id="patch_5">
    <path d="M 128.253719 259.884997 
L 158.517149 259.884997 
L 158.517149 219.968197 
L 128.253719 219.968197 
z
" clip-path="url(#p53192bc3ee)" style="fill: #eb7308; stroke: #000000; stroke-linejoin: miter"/>
   </g>
   <g id="patch_6">
    <path d="M 158.517149 259.884997 
L 188.780579 259.884997 
L 188.780579 219.968197 
L 158.517149 219.968197 
z
" clip-path="url(#p53192bc3ee)" style="fill: #eb7308; stroke: #000000; stroke-linejoin: miter"/>
   </g>
   <g id="patch_7">
    <path d="M 188.780579 259.884997 
L 219.044008 259.884997 
L 219.044008 219.968197 
L 188.780579 219.968197 
z
" clip-path="url(#p53192bc3ee)" style="fill: #ad366e; stroke: #000000; stroke-linejoin: miter"/>
   </g>
   <g id="patch_8">
    <path d="M 219.044008 259.884997 
L 249.307438 259.884997 
L 249.307438 219.968197 
L 219.044008 219.968197 
z
" clip-path="url(#p53192bc3ee)" style="fill: #eb7308; stroke: #000000; stroke-linejoin: miter"/>
   </g>
   <g id="patch_9">
    <path d="M 249.307438 259.884997 
L 279.570868 259.884997 
L 279.570868 219.968197 
L 249.307438 219.968197 
z
" clip-path="url(#p53192bc3ee)" style="fill: #eb7308; stroke: #000000; stroke-linejoin: miter"/>
   </g>
   <g id="patch_10">
    <path d="M 279.570868 259.884997 
L 309.834298 259.884997 
L 309.834298 219.968197 
L 279.570868 219.968197 
z
" clip-path="url(#p53192bc3ee)" style="fill: #ad366e; stroke: #000000; stroke-linejoin: miter"/>
   </g>
   <g id="patch_11">
    <path d="M 309.834298 259.884997 
L 340.097727 259.884997 
L 340.097727 219.968197 
L 309.834298 219.968197 
z
" clip-path="url(#p53192bc3ee)" style="fill: #ad366e; stroke: #000000; stroke-linejoin: miter"/>
   </g>
   <g id="patch_12">
    <path d="M 340.097727 259.884997 
L 370.361157 259.884997 
L 370.361157 219.968197 
L 340.097727 219.968197 
z
" clip-path="url(#p53192bc3ee)" style="fill: #eb7308; stroke: #000000; stroke-linejoin: miter"/>
   </g>
   <g id="text_1">
    <!-- $ \displaystyle F(\vec{\sigma}) = \sum_{i=1}^{N} \sigma_i h_i + \frac{1}{2} \sum_{i,j=1}^{N} \sigma_i J_{ij} \sigma_j $ -->
    <g transform="translate(22.303239 88.437866) scale(0.26 -0.26)">
     <defs>
      <path id="CMMI12-46" d="M 1901 2055 
L 2515 2055 
C 3002 2055 3040 1946 3040 1761 
C 3040 1678 3027 1589 2995 1448 
C 2982 1423 2976 1391 2976 1378 
C 2976 1333 3002 1308 3046 1308 
C 3098 1308 3104 1333 3130 1435 
L 3501 2935 
C 3501 2961 3482 2999 3437 2999 
C 3379 2999 3373 2974 3347 2863 
C 3213 2376 3085 2240 2528 2240 
L 1946 2240 
L 2362 3926 
C 2419 4154 2432 4154 2694 4154 
L 3552 4154 
C 4352 4154 4467 3918 4467 3464 
C 4467 3426 4467 3285 4448 3119 
C 4442 3094 4429 3011 4429 2985 
C 4429 2934 4461 2915 4499 2915 
C 4544 2915 4570 2941 4582 3055 
L 4717 4174 
C 4717 4195 4730 4263 4730 4277 
C 4730 4352 4672 4352 4557 4352 
L 1523 4352 
C 1402 4352 1338 4352 1338 4229 
C 1338 4154 1382 4154 1491 4154 
C 1888 4154 1888 4113 1888 4050 
C 1888 4018 1882 3992 1862 3922 
L 998 473 
C 941 249 928 185 480 185 
C 358 185 294 185 294 70 
C 294 0 352 0 390 0 
C 512 0 640 0 762 0 
L 1594 0 
C 1734 0 1888 0 2029 0 
C 2086 0 2163 0 2163 115 
C 2163 185 2125 185 1984 185 
C 1478 185 1466 229 1466 324 
C 1466 356 1478 406 1491 449 
L 1901 2055 
z
" transform="scale(0.015625)"/>
      <path id="CMR17-28" d="M 1958 -1561 
C 1958 -1555 1958 -1542 1939 -1523 
C 1645 -1224 858 -407 858 1581 
C 858 3569 1632 4379 1946 4697 
C 1946 4704 1958 4717 1958 4736 
C 1958 4755 1939 4768 1914 4768 
C 1843 4768 1299 4296 986 3594 
C 666 2887 576 2199 576 1588 
C 576 1128 621 351 1005 -471 
C 1312 -1135 1837 -1600 1914 -1600 
C 1946 -1600 1958 -1587 1958 -1561 
z
" transform="scale(0.015625)"/>
      <path id="CMMI12-7e" d="M 3424 3835 
C 3347 3764 3110 3540 3110 3451 
C 3110 3387 3168 3329 3232 3329 
C 3290 3329 3315 3368 3360 3432 
C 3514 3624 3686 3745 3834 3828 
C 3898 3867 3942 3886 3942 3956 
C 3942 4014 3891 4046 3853 4078 
C 3674 4200 3629 4372 3610 4449 
C 3590 4500 3571 4577 3482 4577 
C 3443 4577 3366 4552 3366 4456 
C 3366 4398 3405 4244 3526 4072 
L 1376 4072 
C 1267 4072 1158 4072 1158 3950 
C 1158 3835 1274 3835 1376 3835 
L 3424 3835 
z
" transform="scale(0.015625)"/>
      <path id="CMMI12-1b" d="M 3251 2408 
C 3334 2408 3546 2408 3546 2612 
C 3546 2752 3424 2752 3309 2752 
L 1894 2752 
C 934 2752 243 1686 243 932 
C 243 390 595 -64 1171 -64 
C 1926 -64 2752 747 2752 1705 
C 2752 1954 2694 2196 2541 2408 
L 3251 2408 
z
M 1178 64 
C 851 64 614 313 614 754 
C 614 1137 845 2408 1786 2408 
C 2061 2408 2368 2274 2368 1781 
C 2368 1558 2266 1021 2042 652 
C 1811 275 1466 64 1178 64 
z
" transform="scale(0.015625)"/>
      <path id="CMR17-29" d="M 1683 1581 
C 1683 2040 1638 2817 1254 3639 
C 947 4303 422 4768 346 4768 
C 326 4768 301 4761 301 4729 
C 301 4717 307 4710 314 4697 
C 621 4378 1402 3568 1402 1584 
C 1402 -407 627 -1217 314 -1537 
C 307 -1549 301 -1556 301 -1568 
C 301 -1600 326 -1600 346 -1600 
C 416 -1600 960 -1128 1274 -426 
C 1594 281 1683 969 1683 1581 
z
" transform="scale(0.015625)"/>
      <path id="CMR17-3d" d="M 4115 2017 
C 4211 2017 4307 2017 4307 2125 
C 4307 2240 4198 2240 4090 2240 
L 512 2240 
C 403 2240 294 2240 294 2125 
C 294 2017 390 2017 486 2017 
L 4115 2017 
z
M 4090 896 
C 4198 896 4307 896 4307 1011 
C 4307 1119 4211 1119 4115 1119 
L 486 1119 
C 390 1119 294 1119 294 1011 
C 294 896 403 896 512 896 
L 4090 896 
z
" transform="scale(0.015625)"/>
      <path id="CMMI12-4e" d="M 4736 3698 
C 4806 3974 4909 4166 5395 4166 
C 5414 4166 5491 4166 5491 4279 
C 5491 4352 5434 4352 5408 4352 
C 5280 4352 4954 4352 4826 4352 
L 4518 4352 
C 4429 4352 4314 4352 4224 4352 
C 4186 4352 4109 4352 4109 4230 
C 4109 4166 4160 4166 4205 4166 
C 4589 4166 4614 4019 4614 3903 
C 4614 3846 4608 3826 4589 3737 
L 3866 850 
L 2496 4249 
C 2451 4352 2445 4352 2304 4352 
L 1523 4352 
C 1395 4352 1338 4352 1338 4230 
C 1338 4166 1382 4166 1504 4166 
C 1536 4166 1914 4166 1914 4115 
C 1914 4102 1901 4051 1894 4032 
L 1043 635 
C 966 320 813 186 390 186 
C 358 186 294 186 294 67 
C 294 0 358 0 378 0 
C 506 0 832 0 960 0 
L 1267 0 
C 1357 0 1466 0 1555 0 
C 1600 0 1670 0 1670 122 
C 1670 180 1606 186 1581 186 
C 1370 186 1165 224 1165 454 
C 1165 505 1178 562 1190 613 
L 2054 4032 
C 2093 3968 2093 3956 2118 3898 
L 3642 115 
C 3674 38 3686 0 3744 0 
C 3808 0 3814 19 3840 128 
L 4736 3698 
z
" transform="scale(0.015625)"/>
      <path id="CMEX10-58" d="M 8102 -8959 
L 8877 -6911 
L 8717 -6911 
C 8467 -7577 7789 -8012 7053 -8204 
C 6918 -8236 6291 -8402 5062 -8402 
L 1203 -8402 
L 4461 -4581 
C 4506 -4530 4518 -4511 4518 -4479 
C 4518 -4466 4518 -4447 4474 -4383 
L 1491 -306 
L 4998 -306 
C 5856 -306 6438 -396 6496 -409 
C 6842 -460 7398 -569 7904 -889 
C 8064 -991 8499 -1279 8717 -1797 
L 8877 -1797 
L 8102 1 
L 538 1 
C 390 1 384 -5 365 -44 
C 358 -63 358 -185 358 -255 
L 3744 -4888 
L 429 -8773 
C 365 -8850 365 -8882 365 -8889 
C 365 -8959 422 -8959 538 -8959 
L 8102 -8959 
z
" transform="scale(0.015625)"/>
      <path id="CMMI12-69" d="M 1811 913 
C 1811 945 1786 971 1747 971 
C 1690 971 1683 952 1651 843 
C 1485 262 1222 64 1011 64 
C 934 64 845 83 845 275 
C 845 447 922 639 992 830 
L 1440 2018 
C 1459 2069 1504 2184 1504 2305 
C 1504 2574 1312 2816 998 2816 
C 410 2816 173 1890 173 1839 
C 173 1814 198 1782 243 1782 
C 301 1782 307 1807 333 1896 
C 486 2428 730 2682 979 2682 
C 1037 2682 1146 2682 1146 2478 
C 1146 2312 1062 2101 1011 1961 
L 563 773 
C 525 671 486 568 486 453 
C 486 166 685 -64 992 -64 
C 1581 -64 1811 869 1811 913 
z
M 1760 4013 
C 1760 4109 1683 4224 1542 4224 
C 1395 4224 1229 4083 1229 3917 
C 1229 3758 1363 3707 1440 3707 
C 1613 3707 1760 3873 1760 4013 
z
" transform="scale(0.015625)"/>
      <path id="CMR17-31" d="M 1702 4058 
C 1702 4192 1696 4192 1606 4192 
C 1357 3916 979 3827 621 3827 
C 602 3827 570 3827 563 3808 
C 557 3795 557 3782 557 3648 
C 755 3648 1088 3686 1344 3839 
L 1344 461 
C 1344 236 1331 160 781 160 
L 589 160 
L 589 0 
C 896 0 1216 0 1523 0 
C 1830 0 2150 0 2458 0 
L 2458 160 
L 2266 160 
C 1715 160 1702 230 1702 458 
L 1702 4058 
z
" transform="scale(0.015625)"/>
      <path id="CMMI12-68" d="M 1798 4257 
C 1805 4283 1818 4321 1818 4352 
C 1818 4416 1754 4416 1741 4416 
C 1734 4416 1421 4388 1389 4380 
C 1280 4373 1184 4358 1069 4358 
C 909 4345 864 4339 864 4224 
C 864 4160 915 4160 1005 4160 
C 1318 4160 1325 4103 1325 4040 
C 1325 4002 1312 3951 1306 3932 
L 378 248 
C 352 152 352 140 352 101 
C 352 -38 461 -64 525 -64 
C 634 -64 717 19 749 89 
L 1037 1245 
C 1069 1386 1107 1520 1139 1660 
C 1210 1929 1210 1935 1331 2120 
C 1453 2305 1741 2689 2234 2689 
C 2490 2689 2579 2497 2579 2242 
C 2579 1884 2330 1188 2189 805 
C 2131 651 2099 568 2099 453 
C 2099 166 2298 -64 2605 -64 
C 3200 -64 3424 875 3424 913 
C 3424 945 3398 971 3360 971 
C 3302 971 3296 952 3264 843 
C 3117 332 2880 64 2624 64 
C 2560 64 2458 64 2458 269 
C 2458 436 2534 640 2560 710 
C 2675 1018 2963 1773 2963 2145 
C 2963 2528 2739 2816 2253 2816 
C 1888 2816 1568 2644 1306 2312 
L 1798 4257 
z
" transform="scale(0.015625)"/>
      <path id="CMR17-2b" d="M 2413 1472 
L 4109 1472 
C 4198 1472 4307 1472 4307 1580 
C 4307 1695 4205 1695 4109 1695 
L 2413 1695 
L 2413 3386 
C 2413 3475 2413 3584 2304 3584 
C 2189 3584 2189 3482 2189 3386 
L 2189 1695 
L 493 1695 
C 403 1695 294 1695 294 1587 
C 294 1472 397 1472 493 1472 
L 2189 1472 
L 2189 -218 
C 2189 -307 2189 -416 2298 -416 
C 2413 -416 2413 -314 2413 -218 
L 2413 1472 
z
" transform="scale(0.015625)"/>
      <path id="CMR17-32" d="M 2669 989 
L 2554 989 
C 2490 536 2438 459 2413 420 
C 2381 369 1920 369 1830 369 
L 602 369 
C 832 619 1280 1072 1824 1597 
C 2214 1967 2669 2402 2669 3035 
C 2669 3790 2067 4224 1395 4224 
C 691 4224 262 3604 262 3030 
C 262 2780 448 2748 525 2748 
C 589 2748 781 2787 781 3010 
C 781 3207 614 3264 525 3264 
C 486 3264 448 3258 422 3245 
C 544 3790 915 4058 1306 4058 
C 1862 4058 2227 3617 2227 3035 
C 2227 2479 1901 2000 1536 1584 
L 262 146 
L 262 0 
L 2515 0 
L 2669 989 
z
" transform="scale(0.015625)"/>
      <path id="CMMI12-3b" d="M 1248 -31 
C 1248 343 1126 619 864 619 
C 659 619 557 453 557 313 
C 557 172 653 0 870 0 
C 954 0 1024 26 1082 83 
C 1094 96 1101 96 1107 96 
C 1120 96 1120 5 1120 -27 
C 1120 -240 1082 -659 710 -1080 
C 640 -1157 640 -1170 640 -1183 
C 640 -1216 672 -1248 704 -1248 
C 755 -1248 1248 -771 1248 -31 
z
" transform="scale(0.015625)"/>
      <path id="CMMI12-6a" d="M 2240 2028 
C 2266 2131 2266 2219 2266 2245 
C 2266 2613 1990 2816 1702 2816 
C 1056 2816 710 1889 710 1845 
C 710 1813 736 1788 774 1788 
C 826 1788 832 1813 864 1876 
C 1120 2492 1440 2689 1683 2689 
C 1818 2689 1888 2618 1888 2397 
C 1888 2245 1869 2181 1843 2067 
L 1235 -327 
C 1114 -796 813 -1152 461 -1152 
C 435 -1152 301 -1152 179 -1088 
C 333 -1056 454 -936 454 -784 
C 454 -682 378 -580 237 -580 
C 70 -580 -83 -720 -83 -911 
C -83 -1171 198 -1280 461 -1280 
C 902 -1280 1485 -956 1645 -320 
L 2240 2028 
z
M 2502 4013 
C 2502 4173 2368 4224 2291 4224 
C 2118 4224 1971 4058 1971 3917 
C 1971 3822 2048 3707 2189 3707 
C 2336 3707 2502 3847 2502 4013 
z
" transform="scale(0.015625)"/>
      <path id="CMMI12-4a" d="M 3418 3912 
C 3469 4103 3482 4167 3795 4167 
C 3898 4167 3962 4167 3962 4282 
C 3962 4352 3904 4352 3878 4352 
C 3770 4352 3648 4352 3533 4352 
L 3181 4352 
C 2912 4352 2630 4352 2362 4352 
C 2304 4352 2227 4352 2227 4237 
C 2227 4173 2278 4173 2278 4167 
L 2438 4167 
C 2950 4167 2950 4116 2950 4020 
C 2950 4013 2950 3969 2925 3868 
L 2189 960 
C 2022 312 1594 0 1286 0 
C 1069 0 762 100 685 431 
C 710 424 742 418 768 418 
C 979 418 1146 603 1146 788 
C 1146 890 1082 1024 890 1024 
C 774 1024 506 961 506 549 
C 506 151 838 -128 1299 -128 
C 1882 -128 2509 311 2662 915 
L 3418 3912 
z
" transform="scale(0.015625)"/>
     </defs>
     <use xlink:href="#CMMI12-46" transform="scale(0.996264)"/>
     <use xlink:href="#CMR17-28" transform="translate(76.696793 0) scale(0.996264)"/>
     <use xlink:href="#CMMI12-7e" transform="translate(109.43792 0) scale(0.996264)"/>
     <use xlink:href="#CMMI12-1b" transform="translate(111.97756 0) scale(0.996264)"/>
     <use xlink:href="#CMR17-29" transform="translate(170.997614 0) scale(0.996264)"/>
     <use xlink:href="#CMR17-3d" transform="translate(233.95239 0) scale(0.996264)"/>
     <use xlink:href="#CMMI12-4e" transform="translate(374.311298 124.53364) scale(0.697382)"/>
     <use xlink:href="#CMEX10-58" transform="translate(333.341188 94.645628) scale(0.996264)"/>
     <use xlink:href="#CMMI12-69" transform="translate(352.554675 -117.119274) scale(0.697382)"/>
     <use xlink:href="#CMR17-3d" transform="translate(375.849582 -117.119274) scale(0.697382)"/>
     <use xlink:href="#CMR17-31" transform="translate(426.049713 -117.119274) scale(0.697382)"/>
     <use xlink:href="#CMMI12-1b" transform="translate(493.850788 0) scale(0.996264)"/>
     <use xlink:href="#CMMI12-69" transform="translate(549.296249 -14.943915) scale(0.697382)"/>
     <use xlink:href="#CMMI12-68" transform="translate(573.089288 0) scale(0.996264)"/>
     <use xlink:href="#CMMI12-69" transform="translate(629.243912 -14.943915) scale(0.697382)"/>
     <use xlink:href="#CMR17-2b" transform="translate(675.176158 0) scale(0.996264)"/>
     <use xlink:href="#CMR17-31" transform="translate(770.225667 67.398045) scale(0.996264)"/>
     <use xlink:href="#CMR17-32" transform="translate(770.225667 -68.338837) scale(0.996264)"/>
     <use xlink:href="#CMMI12-4e" transform="translate(881.043453 124.53364) scale(0.697382)"/>
     <use xlink:href="#CMEX10-58" transform="translate(840.073343 94.645628) scale(0.996264)"/>
     <use xlink:href="#CMMI12-69" transform="translate(833.716064 -117.119274) scale(0.697382)"/>
     <use xlink:href="#CMMI12-3b" transform="translate(857.010971 -117.119274) scale(0.697382)"/>
     <use xlink:href="#CMMI12-6a" transform="translate(875.978904 -117.119274) scale(0.697382)"/>
     <use xlink:href="#CMR17-3d" transform="translate(908.152488 -117.119274) scale(0.697382)"/>
     <use xlink:href="#CMR17-31" transform="translate(958.352619 -117.119274) scale(0.697382)"/>
     <use xlink:href="#CMMI12-1b" transform="translate(1006.940207 0) scale(0.996264)"/>
     <use xlink:href="#CMMI12-69" transform="translate(1062.385667 -14.943915) scale(0.697382)"/>
     <use xlink:href="#CMMI12-4a" transform="translate(1086.178707 0) scale(0.996264)"/>
     <use xlink:href="#CMMI12-69" transform="translate(1140.096662 -14.943915) scale(0.697382)"/>
     <use xlink:href="#CMMI12-6a" transform="translate(1163.391569 -14.943915) scale(0.697382)"/>
     <use xlink:href="#CMMI12-1b" transform="translate(1196.063286 0) scale(0.996264)"/>
     <use xlink:href="#CMMI12-6a" transform="translate(1251.508746 -14.943915) scale(0.697382)"/>
     <path d="M 770.225667 22.914133 
L 815.916145 22.914133 
L 815.916145 26.899083 
L 770.225667 26.899083 
L 770.225667 22.914133 
z
"/>
    </g>
   </g>
   <g id="text_2">
    <!-- $\sigma_i \in \{\pm 1\}$ -->
    <g transform="translate(135.014277 162.888145) scale(0.26 -0.26)">
     <defs>
      <path id="CMSY10-32" d="M 3506 1472 
C 3615 1472 3730 1472 3730 1600 
C 3730 1728 3615 1728 3506 1728 
L 792 1728 
C 869 2586 1605 3200 2507 3200 
L 3506 3200 
C 3615 3200 3730 3200 3730 3328 
C 3730 3456 3615 3456 3506 3456 
L 2495 3456 
C 1400 3456 530 2624 530 1600 
C 530 576 1400 -256 2495 -256 
L 3506 -256 
C 3615 -256 3730 -256 3730 -128 
C 3730 0 3615 0 3506 0 
L 2507 0 
C 1605 0 869 614 792 1472 
L 3506 1472 
z
" transform="scale(0.015625)"/>
      <path id="CMSY10-66" d="M 1811 3962 
C 1811 4221 1978 4634 2675 4634 
C 2707 4642 2733 4672 2733 4718 
C 2733 4800 2682 4800 2611 4800 
C 1971 4800 1389 4471 1382 3993 
L 1382 2522 
C 1382 2270 1382 2063 1126 1851 
C 902 1664 659 1664 518 1664 
C 486 1657 461 1626 461 1580 
C 461 1504 499 1504 563 1504 
C 986 1504 1293 1274 1363 960 
C 1382 890 1382 877 1382 646 
L 1382 -621 
C 1382 -890 1382 -1094 1690 -1338 
C 1939 -1530 2362 -1600 2611 -1600 
C 2682 -1600 2733 -1600 2733 -1530 
C 2733 -1453 2694 -1453 2630 -1453 
C 2227 -1453 1914 -1248 1830 -920 
C 1811 -863 1811 -850 1811 -619 
L 1811 727 
C 1811 1023 1760 1132 1555 1337 
C 1421 1472 1235 1536 1056 1587 
C 1581 1736 1811 2034 1811 2409 
L 1811 3962 
z
" transform="scale(0.015625)"/>
      <path id="CMSY10-6" d="M 2618 1984 
L 4397 1984 
C 4506 1984 4621 1984 4621 2112 
C 4621 2240 4506 2240 4397 2240 
L 2618 2240 
L 2618 4018 
C 2618 4121 2618 4256 2490 4256 
C 2362 4256 2362 4140 2362 4038 
L 2362 2240 
L 576 2240 
C 467 2240 352 2240 352 2112 
C 352 1984 467 1984 576 1984 
L 2362 1984 
L 2362 256 
L 576 256 
C 467 256 352 256 352 128 
C 352 0 467 0 576 0 
L 4397 0 
C 4506 0 4621 0 4621 128 
C 4621 256 4506 256 4397 256 
L 2618 256 
L 2618 1984 
z
" transform="scale(0.015625)"/>
      <path id="CMSY10-67" d="M 1382 -772 
C 1382 -1029 1216 -1440 518 -1440 
C 486 -1448 461 -1476 461 -1521 
C 461 -1600 531 -1600 589 -1600 
C 1210 -1600 1805 -1287 1811 -802 
L 1811 655 
C 1811 904 1811 1109 2067 1319 
C 2291 1504 2534 1504 2675 1504 
C 2707 1511 2733 1542 2733 1588 
C 2733 1664 2694 1664 2630 1664 
C 2208 1664 1901 1896 1830 2214 
C 1811 2284 1811 2297 1811 2531 
L 1811 3811 
C 1811 4083 1811 4289 1504 4535 
C 1248 4735 806 4800 589 4800 
C 531 4800 461 4800 461 4720 
C 461 4646 499 4646 563 4646 
C 966 4646 1280 4439 1363 4110 
C 1382 4052 1382 4039 1382 3807 
L 1382 2452 
C 1382 2155 1434 2045 1638 1839 
C 1773 1703 1958 1638 2138 1587 
C 1613 1439 1382 1143 1382 771 
L 1382 -772 
z
" transform="scale(0.015625)"/>
     </defs>
     <use xlink:href="#CMMI12-1b" transform="scale(0.996264)"/>
     <use xlink:href="#CMMI12-69" transform="translate(55.445461 -14.943915) scale(0.697382)"/>
     <use xlink:href="#CMSY10-32" transform="translate(106.912509 0) scale(0.996264)"/>
     <use xlink:href="#CMSY10-66" transform="translate(201.004336 0) scale(0.996264)"/>
     <use xlink:href="#CMSY10-6" transform="translate(250.817719 0) scale(0.996264)"/>
     <use xlink:href="#CMR17-31" transform="translate(328.305187 0) scale(0.996264)"/>
     <use xlink:href="#CMSY10-67" transform="translate(373.995664 0) scale(0.996264)"/>
    </g>
   </g>
   <g id="patch_13">
    <path d="M 52.595145 251.234408 
Q 52.595145 239.926721 52.595145 230.184281 
" style="fill: none; stroke: #000000; stroke-width: 1.4; stroke-linecap: round"/>
    <path d="M 50.595145 234.184281 
L 52.595145 230.184281 
L 54.595145 234.184281 
" style="fill: none; stroke: #000000; stroke-width: 1.4; stroke-linecap: round"/>
   </g>
   <g id="patch_14">
    <path d="M 82.858574 251.234408 
Q 82.858574 239.926721 82.858574 230.184281 
" style="fill: none; stroke: #000000; stroke-width: 1.4; stroke-linecap: round"/>
    <path d="M 80.858574 234.184281 
L 82.858574 230.184281 
L 84.858574 234.184281 
" style="fill: none; stroke: #000000; stroke-width: 1.4; stroke-linecap: round"/>
   </g>
   <g id="patch_15">
    <path d="M 113.122004 251.234408 
Q 113.122004 239.926721 113.122004 230.184281 
" style="fill: none; stroke: #000000; stroke-width: 1.4; stroke-linecap: round"/>
    <path d="M 111.122004 234.184281 
L 113.122004 230.184281 
L 115.122004 234.184281 
" style="fill: none; stroke: #000000; stroke-width: 1.4; stroke-linecap: round"/>
   </g>
   <g id="patch_16">
    <path d="M 143.385434 251.234408 
Q 143.385434 239.926721 143.385434 230.184281 
" style="fill: none; stroke: #000000; stroke-width: 1.4; stroke-linecap: round"/>
    <path d="M 141.385434 234.184281 
L 143.385434 230.184281 
L 145.385434 234.184281 
" style="fill: none; stroke: #000000; stroke-width: 1.4; stroke-linecap: round"/>
   </g>
   <g id="patch_17">
    <path d="M 173.648864 251.234408 
Q 173.648864 239.926721 173.648864 230.184281 
" style="fill: none; stroke: #000000; stroke-width: 1.4; stroke-linecap: round"/>
    <path d="M 171.648864 234.184281 
L 173.648864 230.184281 
L 175.648864 234.184281 
" style="fill: none; stroke: #000000; stroke-width: 1.4; stroke-linecap: round"/>
   </g>
   <g id="patch_18">
    <path d="M 203.912293 228.618786 
Q 203.912293 239.926473 203.912293 249.668912 
" style="fill: none; stroke: #000000; stroke-width: 1.4; stroke-linecap: round"/>
    <path d="M 205.912293 245.668912 
L 203.912293 249.668912 
L 201.912293 245.668912 
" style="fill: none; stroke: #000000; stroke-width: 1.4; stroke-linecap: round"/>
   </g>
   <g id="patch_19">
    <path d="M 234.175723 251.234408 
Q 234.175723 239.926721 234.175723 230.184281 
" style="fill: none; stroke: #000000; stroke-width: 1.4; stroke-linecap: round"/>
    <path d="M 232.175723 234.184281 
L 234.175723 230.184281 
L 236.175723 234.184281 
" style="fill: none; stroke: #000000; stroke-width: 1.4; stroke-linecap: round"/>
   </g>
   <g id="patch_20">
    <path d="M 264.439153 251.234408 
Q 264.439153 239.926721 264.439153 230.184281 
" style="fill: none; stroke: #000000; stroke-width: 1.4; stroke-linecap: round"/>
    <path d="M 262.439153 234.184281 
L 264.439153 230.184281 
L 266.439153 234.184281 
" style="fill: none; stroke: #000000; stroke-width: 1.4; stroke-linecap: round"/>
   </g>
   <g id="patch_21">
    <path d="M 294.702583 228.618786 
Q 294.702583 239.926473 294.702583 249.668912 
" style="fill: none; stroke: #000000; stroke-width: 1.4; stroke-linecap: round"/>
    <path d="M 296.702583 245.668912 
L 294.702583 249.668912 
L 292.702583 245.668912 
" style="fill: none; stroke: #000000; stroke-width: 1.4; stroke-linecap: round"/>
   </g>
   <g id="patch_22">
    <path d="M 324.966012 228.618786 
Q 324.966012 239.926473 324.966012 249.668912 
" style="fill: none; stroke: #000000; stroke-width: 1.4; stroke-linecap: round"/>
    <path d="M 326.966012 245.668912 
L 324.966012 249.668912 
L 322.966012 245.668912 
" style="fill: none; stroke: #000000; stroke-width: 1.4; stroke-linecap: round"/>
   </g>
   <g id="patch_23">
    <path d="M 355.229442 251.234408 
Q 355.229442 239.926721 355.229442 230.184281 
" style="fill: none; stroke: #000000; stroke-width: 1.4; stroke-linecap: round"/>
    <path d="M 353.229442 234.184281 
L 355.229442 230.184281 
L 357.229442 234.184281 
" style="fill: none; stroke: #000000; stroke-width: 1.4; stroke-linecap: round"/>
   </g>
   <g id="text_3">
    <!-- A -->
    <g transform="translate(7.2 21.036997) scale(0.2 -0.2)">
     <defs>
      <path id="CMR17-41" d="M 2323 4378 
C 2291 4461 2278 4480 2214 4480 
C 2150 4480 2138 4461 2106 4378 
L 749 566 
C 627 223 371 153 147 153 
L 147 -13 
C 262 0 518 0 640 0 
C 800 0 1056 0 1210 -13 
L 1210 153 
C 909 153 864 361 864 439 
C 864 497 877 530 890 569 
L 1229 1536 
L 2906 1536 
L 3290 442 
C 3322 365 3322 352 3322 327 
C 3322 153 3046 153 2925 153 
L 2925 0 
C 3110 0 3443 0 3642 0 
C 3808 0 4128 0 4282 -13 
L 4282 153 
C 3942 153 3827 153 3744 387 
L 2323 4378 
z
M 2067 3893 
L 2848 1702 
L 1286 1702 
L 2067 3893 
z
" transform="scale(0.015625)"/>
     </defs>
     <use xlink:href="#CMR17-41" transform="scale(0.996264)"/>
    </g>
   </g>
  </g>
  <g id="axes_2">
   <g id="LineCollection_1">
    <path d="M 724.085604 184.128681 
L 749.846338 243.002915 
" clip-path="url(#pfbcc3f6355)" style="fill: none; stroke: #ff4126; stroke-opacity: 0.168304; stroke-width: 2.7"/>
   </g>
   <g id="LineCollection_2">
    <path d="M 724.085604 184.128681 
L 718.654854 163.69421 
" clip-path="url(#pfbcc3f6355)" style="fill: none; stroke: #ff4126; stroke-opacity: 0.456; stroke-width: 2.7"/>
   </g>
   <g id="LineCollection_3">
    <path d="M 523.396224 44.124553 
L 498.902915 68.815099 
" clip-path="url(#pfbcc3f6355)" style="fill: none; stroke: #ff4126; stroke-opacity: 0.832593; stroke-width: 2.7"/>
   </g>
   <g id="LineCollection_4">
    <path d="M 523.396224 44.124553 
L 559.731319 63.797644 
" clip-path="url(#pfbcc3f6355)" style="fill: none; stroke: #ff4126; stroke-opacity: 0.275947; stroke-width: 2.7"/>
   </g>
   <g id="LineCollection_5">
    <path d="M 466.304919 94.900262 
L 514.187013 86.273306 
" clip-path="url(#pfbcc3f6355)" style="fill: none; stroke: #ff4126; stroke-opacity: 0.155817; stroke-width: 2.7"/>
   </g>
   <g id="LineCollection_6">
    <path d="M 466.304919 94.900262 
L 498.902915 68.815099 
" clip-path="url(#pfbcc3f6355)" style="fill: none; stroke: #ff4126; stroke-opacity: 0.037197; stroke-width: 2.7"/>
   </g>
   <g id="LineCollection_7">
    <path d="M 534.507179 169.169805 
L 591.594319 210.545299 
" clip-path="url(#pfbcc3f6355)" style="fill: none; stroke: #ff4126; stroke-opacity: 0.176328; stroke-width: 2.7"/>
   </g>
   <g id="LineCollection_8">
    <path d="M 546.039003 176.810528 
L 568.131716 185.284011 
" clip-path="url(#pfbcc3f6355)" style="fill: none; stroke: #ff4126; stroke-opacity: 0.056969; stroke-width: 2.7"/>
   </g>
   <g id="LineCollection_9">
    <path d="M 546.039003 176.810528 
L 490.376337 160.452474 
" clip-path="url(#pfbcc3f6355)" style="fill: none; stroke: #ff4126; stroke-opacity: 0.02376; stroke-width: 2.7"/>
   </g>
   <g id="LineCollection_10">
    <path d="M 457.005952 294.760251 
L 428.096604 261.684748 
" clip-path="url(#pfbcc3f6355)" style="fill: none; stroke: #ff4126; stroke-opacity: 0.334403; stroke-width: 2.7"/>
   </g>
   <g id="LineCollection_11">
    <path d="M 457.005952 294.760251 
L 492.656698 312.405314 
" clip-path="url(#pfbcc3f6355)" style="fill: none; stroke: #ff4126; stroke-opacity: 0.370915; stroke-width: 2.7"/>
   </g>
   <g id="LineCollection_12">
    <path d="M 436.780919 220.871902 
L 444.463135 152.305814 
" clip-path="url(#pfbcc3f6355)" style="fill: none; stroke: #ff4126; stroke-opacity: 0.166549; stroke-width: 2.7"/>
   </g>
   <g id="LineCollection_13">
    <path d="M 436.780919 220.871902 
L 482.064688 263.168906 
" clip-path="url(#pfbcc3f6355)" style="fill: none; stroke: #ff4126; stroke-opacity: 0.37155; stroke-width: 2.7"/>
   </g>
   <g id="LineCollection_14">
    <path d="M 482.064688 263.168906 
L 513.616067 209.256067 
" clip-path="url(#pfbcc3f6355)" style="fill: none; stroke: #ff4126; stroke-opacity: 0.222819; stroke-width: 2.7"/>
   </g>
   <g id="LineCollection_15">
    <path d="M 596.355836 170.983453 
L 639.885233 131.552096 
" clip-path="url(#pfbcc3f6355)" style="fill: none; stroke: #ff4126; stroke-opacity: 0.030859; stroke-width: 2.7"/>
   </g>
   <g id="LineCollection_16">
    <path d="M 721.233353 222.346227 
L 696.047493 175.695794 
" clip-path="url(#pfbcc3f6355)" style="fill: none; stroke: #ff4126; stroke-opacity: 0.286288; stroke-width: 2.7"/>
   </g>
   <g id="LineCollection_17">
    <path d="M 721.233353 222.346227 
L 757.724315 260.476504 
" clip-path="url(#pfbcc3f6355)" style="fill: none; stroke: #ff4126; stroke-opacity: 0.280674; stroke-width: 2.7"/>
   </g>
   <g id="LineCollection_18">
    <path d="M 645.57767 266.073265 
L 680.745072 279.685352 
" clip-path="url(#pfbcc3f6355)" style="fill: none; stroke: #ff4126; stroke-opacity: 0.162866; stroke-width: 2.7"/>
   </g>
   <g id="LineCollection_19">
    <path d="M 645.57767 266.073265 
L 607.949306 216.617591 
" clip-path="url(#pfbcc3f6355)" style="fill: none; stroke: #ff4126; stroke-opacity: 0.116655; stroke-width: 2.7"/>
   </g>
   <g id="LineCollection_20">
    <path d="M 568.131716 185.284011 
L 558.950892 218.992841 
" clip-path="url(#pfbcc3f6355)" style="fill: none; stroke: #ff4126; stroke-opacity: 0.050931; stroke-width: 2.7"/>
   </g>
   <g id="LineCollection_21">
    <path d="M 559.810564 246.564343 
L 494.442592 237.971914 
" clip-path="url(#pfbcc3f6355)" style="fill: none; stroke: #ff4126; stroke-opacity: 0.411458; stroke-width: 2.7"/>
   </g>
   <g id="LineCollection_22">
    <path d="M 559.810564 246.564343 
L 591.594319 210.545299 
" clip-path="url(#pfbcc3f6355)" style="fill: none; stroke: #ff4126; stroke-opacity: 0.634535; stroke-width: 2.7"/>
   </g>
   <g id="LineCollection_23">
    <path d="M 648.60544 329.925773 
L 594.667055 343.396531 
" clip-path="url(#pfbcc3f6355)" style="fill: none; stroke: #ff4126; stroke-opacity: 0.645134; stroke-width: 2.7"/>
   </g>
   <g id="LineCollection_24">
    <path d="M 648.60544 329.925773 
L 680.745072 279.685352 
" clip-path="url(#pfbcc3f6355)" style="fill: none; stroke: #ff4126; stroke-opacity: 0.563808; stroke-width: 2.7"/>
   </g>
   <g id="LineCollection_25">
    <path d="M 558.950892 218.992841 
L 522.632684 270.263326 
" clip-path="url(#pfbcc3f6355)" style="fill: none; stroke: #ff4126; stroke-opacity: 0.703722; stroke-width: 2.7"/>
   </g>
   <g id="LineCollection_26">
    <path d="M 586.690504 90.796866 
L 624.819455 101.498888 
" clip-path="url(#pfbcc3f6355)" style="fill: none; stroke: #ff4126; stroke-opacity: 0.074098; stroke-width: 2.7"/>
   </g>
   <g id="LineCollection_27">
    <path d="M 620.313103 145.949415 
L 624.819455 101.498888 
" clip-path="url(#pfbcc3f6355)" style="fill: none; stroke: #ff4126; stroke-opacity: 0.035718; stroke-width: 2.7"/>
   </g>
   <g id="LineCollection_28">
    <path d="M 683.533345 163.633155 
L 718.654854 163.69421 
" clip-path="url(#pfbcc3f6355)" style="fill: none; stroke: #ff4126; stroke-opacity: 0.236811; stroke-width: 2.7"/>
   </g>
   <g id="LineCollection_29">
    <path d="M 661.753747 263.961454 
L 646.466715 206.193785 
" clip-path="url(#pfbcc3f6355)" style="fill: none; stroke: #ff4126; stroke-opacity: 0.385001; stroke-width: 2.7"/>
   </g>
   <g id="LineCollection_30">
    <path d="M 490.376337 160.452474 
L 480.595607 114.220547 
" clip-path="url(#pfbcc3f6355)" style="fill: none; stroke: #ff4126; stroke-opacity: 0.395486; stroke-width: 2.7"/>
   </g>
   <g id="LineCollection_31">
    <path d="M 741.758411 289.652296 
L 757.724315 260.476504 
" clip-path="url(#pfbcc3f6355)" style="fill: none; stroke: #ff4126; stroke-opacity: 0.245225; stroke-width: 2.7"/>
   </g>
   <g id="LineCollection_32">
    <path d="M 741.758411 289.652296 
L 690.990599 312.567924 
" clip-path="url(#pfbcc3f6355)" style="fill: none; stroke: #ff4126; stroke-opacity: 0.840163; stroke-width: 2.7"/>
   </g>
   <g id="LineCollection_33">
    <path d="M 741.758411 289.652296 
L 749.846338 243.002915 
" clip-path="url(#pfbcc3f6355)" style="fill: none; stroke: #ff4126; stroke-opacity: 0.38472; stroke-width: 2.7"/>
   </g>
   <g id="LineCollection_34">
    <path d="M 633.335072 142.448796 
L 624.819455 101.498888 
" clip-path="url(#pfbcc3f6355)" style="fill: none; stroke: #ff4126; stroke-opacity: 0.149482; stroke-width: 2.7"/>
   </g>
   <g id="LineCollection_35">
    <path d="M 682.502877 190.187994 
L 629.545509 200.028568 
" clip-path="url(#pfbcc3f6355)" style="fill: none; stroke: #ff4126; stroke-opacity: 0.640459; stroke-width: 2.7"/>
   </g>
   <g id="LineCollection_36">
    <path d="M 682.502877 190.187994 
L 718.654854 163.69421 
" clip-path="url(#pfbcc3f6355)" style="fill: none; stroke: #ff4126; stroke-opacity: 0.165807; stroke-width: 2.7"/>
   </g>
   <g id="LineCollection_37">
    <path d="M 682.502877 190.187994 
L 665.129644 216.333749 
" clip-path="url(#pfbcc3f6355)" style="fill: none; stroke: #ff4126; stroke-opacity: 0.011636; stroke-width: 2.7"/>
   </g>
   <g id="LineCollection_38">
    <path d="M 559.731319 63.797644 
L 604.420447 111.369859 
" clip-path="url(#pfbcc3f6355)" style="fill: none; stroke: #ff4126; stroke-opacity: 0.224875; stroke-width: 2.7"/>
   </g>
   <g id="LineCollection_39">
    <path d="M 522.632684 270.263326 
L 492.656698 312.405314 
" clip-path="url(#pfbcc3f6355)" style="fill: none; stroke: #ff4126; stroke-opacity: 0.048989; stroke-width: 2.7"/>
   </g>
   <g id="LineCollection_40">
    <path d="M 526.94462 320.187207 
L 492.656698 312.405314 
" clip-path="url(#pfbcc3f6355)" style="fill: none; stroke: #ff4126; stroke-opacity: 0.398873; stroke-width: 2.7"/>
   </g>
   <g id="LineCollection_41">
    <path d="M 538.72563 110.517388 
L 592.766487 128.098498 
" clip-path="url(#pfbcc3f6355)" style="fill: none; stroke: #ff4126; stroke-opacity: 0.36856; stroke-width: 2.7"/>
   </g>
   <g id="LineCollection_42">
    <path d="M 538.72563 110.517388 
L 498.902915 68.815099 
" clip-path="url(#pfbcc3f6355)" style="fill: none; stroke: #ff4126; stroke-width: 2.7"/>
   </g>
   <g id="LineCollection_43">
    <path d="M 550.414052 170.703383 
L 488.083731 142.82274 
" clip-path="url(#pfbcc3f6355)" style="fill: none; stroke: #ff4126; stroke-opacity: 0.255814; stroke-width: 2.7"/>
   </g>
   <g id="LineCollection_44">
    <path d="M 513.616067 209.256067 
L 477.024127 203.22585 
" clip-path="url(#pfbcc3f6355)" style="fill: none; stroke: #ff4126; stroke-opacity: 0.469601; stroke-width: 2.7"/>
   </g>
   <g id="LineCollection_45">
    <path d="M 511.230652 152.676798 
L 485.25102 186.675586 
" clip-path="url(#pfbcc3f6355)" style="fill: none; stroke: #ff4126; stroke-opacity: 0.301559; stroke-width: 2.7"/>
   </g>
   <g id="LineCollection_46">
    <path d="M 648.006253 311.213549 
L 618.800367 302.732446 
" clip-path="url(#pfbcc3f6355)" style="fill: none; stroke: #ff4126; stroke-opacity: 0.598409; stroke-width: 2.7"/>
   </g>
   <g id="LineCollection_47">
    <path d="M 480.595607 114.220547 
L 514.187013 86.273306 
" clip-path="url(#pfbcc3f6355)" style="fill: none; stroke: #ff4126; stroke-opacity: 0.197392; stroke-width: 2.7"/>
   </g>
   <g id="LineCollection_48">
    <path d="M 591.327242 240.818843 
L 530.86037 220.636344 
" clip-path="url(#pfbcc3f6355)" style="fill: none; stroke: #ff4126; stroke-opacity: 0.198576; stroke-width: 2.7"/>
   </g>
   <g id="LineCollection_49">
    <path d="M 591.327242 240.818843 
L 619.292205 174.623181 
" clip-path="url(#pfbcc3f6355)" style="fill: none; stroke: #ff4126; stroke-opacity: 0.250123; stroke-width: 2.7"/>
   </g>
   <g id="LineCollection_50">
    <path d="M 494.442592 237.971914 
L 477.024127 203.22585 
" clip-path="url(#pfbcc3f6355)" style="fill: none; stroke: #ff4126; stroke-opacity: 0.00379; stroke-width: 2.7"/>
   </g>
   <g id="LineCollection_51">
    <path d="M 696.047493 175.695794 
L 639.885233 131.552096 
" clip-path="url(#pfbcc3f6355)" style="fill: none; stroke: #ff4126; stroke-opacity: 0.057662; stroke-width: 2.7"/>
   </g>
   <g id="LineCollection_52">
    <path d="M 696.047493 175.695794 
L 700.134823 217.030902 
" clip-path="url(#pfbcc3f6355)" style="fill: none; stroke: #ff4126; stroke-opacity: 0.256991; stroke-width: 2.7"/>
   </g>
   <g id="LineCollection_53">
    <path d="M 453.992385 231.423969 
L 485.25102 186.675586 
" clip-path="url(#pfbcc3f6355)" style="fill: none; stroke: #ff4126; stroke-opacity: 0.741422; stroke-width: 2.7"/>
   </g>
   <g id="LineCollection_54">
    <path d="M 629.545509 200.028568 
L 577.4333 168.827796 
" clip-path="url(#pfbcc3f6355)" style="fill: none; stroke: #ff4126; stroke-opacity: 0.631578; stroke-width: 2.7"/>
   </g>
   <g id="LineCollection_55">
    <path d="M 640.905058 341.571115 
L 690.990599 312.567924 
" clip-path="url(#pfbcc3f6355)" style="fill: none; stroke: #ff4126; stroke-opacity: 0.386375; stroke-width: 2.7"/>
   </g>
   <g id="LineCollection_56">
    <path d="M 663.550108 145.972605 
L 619.292205 174.623181 
" clip-path="url(#pfbcc3f6355)" style="fill: none; stroke: #ff4126; stroke-opacity: 0.050674; stroke-width: 2.7"/>
   </g>
   <g id="LineCollection_57">
    <path d="M 619.292205 174.623181 
L 592.766487 128.098498 
" clip-path="url(#pfbcc3f6355)" style="fill: none; stroke: #ff4126; stroke-opacity: 0.675222; stroke-width: 2.7"/>
   </g>
   <g id="LineCollection_58">
    <path d="M 724.085604 184.128681 
L 663.550108 145.972605 
" clip-path="url(#pfbcc3f6355)" style="fill: none; stroke: #3d26a6; stroke-opacity: 0.492121; stroke-width: 2.7"/>
   </g>
   <g id="LineCollection_59">
    <path d="M 616.271395 248.997767 
L 629.545509 200.028568 
" clip-path="url(#pfbcc3f6355)" style="fill: none; stroke: #3d26a6; stroke-opacity: 0.13341; stroke-width: 2.7"/>
   </g>
   <g id="LineCollection_60">
    <path d="M 616.271395 248.997767 
L 661.753747 263.961454 
" clip-path="url(#pfbcc3f6355)" style="fill: none; stroke: #3d26a6; stroke-opacity: 0.298988; stroke-width: 2.7"/>
   </g>
   <g id="LineCollection_61">
    <path d="M 616.271395 248.997767 
L 559.810564 246.564343 
" clip-path="url(#pfbcc3f6355)" style="fill: none; stroke: #3d26a6; stroke-opacity: 0.477196; stroke-width: 2.7"/>
   </g>
   <g id="LineCollection_62">
    <path d="M 523.396224 44.124553 
L 525.122694 83.475672 
" clip-path="url(#pfbcc3f6355)" style="fill: none; stroke: #3d26a6; stroke-opacity: 0.019285; stroke-width: 2.7"/>
   </g>
   <g id="LineCollection_63">
    <path d="M 466.304919 94.900262 
L 444.463135 152.305814 
" clip-path="url(#pfbcc3f6355)" style="fill: none; stroke: #3d26a6; stroke-opacity: 0.017938; stroke-width: 2.7"/>
   </g>
   <g id="LineCollection_64">
    <path d="M 534.507179 169.169805 
L 538.72563 110.517388 
" clip-path="url(#pfbcc3f6355)" style="fill: none; stroke: #3d26a6; stroke-opacity: 0.035974; stroke-width: 2.7"/>
   </g>
   <g id="LineCollection_65">
    <path d="M 534.507179 169.169805 
L 485.25102 186.675586 
" clip-path="url(#pfbcc3f6355)" style="fill: none; stroke: #3d26a6; stroke-opacity: 0.04242; stroke-width: 2.7"/>
   </g>
   <g id="LineCollection_66">
    <path d="M 546.039003 176.810528 
L 607.949306 216.617591 
" clip-path="url(#pfbcc3f6355)" style="fill: none; stroke: #3d26a6; stroke-opacity: 0.111904; stroke-width: 2.7"/>
   </g>
   <g id="LineCollection_67">
    <path d="M 457.005952 294.760251 
L 495.38804 264.55746 
" clip-path="url(#pfbcc3f6355)" style="fill: none; stroke: #3d26a6; stroke-opacity: 0.32152; stroke-width: 2.7"/>
   </g>
   <g id="LineCollection_68">
    <path d="M 436.780919 220.871902 
L 428.096604 261.684748 
" clip-path="url(#pfbcc3f6355)" style="fill: none; stroke: #3d26a6; stroke-opacity: 0.053091; stroke-width: 2.7"/>
   </g>
   <g id="LineCollection_69">
    <path d="M 482.064688 263.168906 
L 526.94462 320.187207 
" clip-path="url(#pfbcc3f6355)" style="fill: none; stroke: #3d26a6; stroke-opacity: 0.585039; stroke-width: 2.7"/>
   </g>
   <g id="LineCollection_70">
    <path d="M 596.355836 170.983453 
L 568.131716 185.284011 
" clip-path="url(#pfbcc3f6355)" style="fill: none; stroke: #3d26a6; stroke-opacity: 0.100704; stroke-width: 2.7"/>
   </g>
   <g id="LineCollection_71">
    <path d="M 596.355836 170.983453 
L 558.950892 218.992841 
" clip-path="url(#pfbcc3f6355)" style="fill: none; stroke: #3d26a6; stroke-opacity: 0.205362; stroke-width: 2.7"/>
   </g>
   <g id="LineCollection_72">
    <path d="M 721.233353 222.346227 
L 665.129644 216.333749 
" clip-path="url(#pfbcc3f6355)" style="fill: none; stroke: #3d26a6; stroke-opacity: 0.067804; stroke-width: 2.7"/>
   </g>
   <g id="LineCollection_73">
    <path d="M 645.57767 266.073265 
L 648.006253 311.213549 
" clip-path="url(#pfbcc3f6355)" style="fill: none; stroke: #3d26a6; stroke-opacity: 0.398734; stroke-width: 2.7"/>
   </g>
   <g id="LineCollection_74">
    <path d="M 648.60544 329.925773 
L 648.006253 311.213549 
" clip-path="url(#pfbcc3f6355)" style="fill: none; stroke: #3d26a6; stroke-opacity: 0.535968; stroke-width: 2.7"/>
   </g>
   <g id="LineCollection_75">
    <path d="M 586.690504 90.796866 
L 639.885233 131.552096 
" clip-path="url(#pfbcc3f6355)" style="fill: none; stroke: #3d26a6; stroke-opacity: 0.57312; stroke-width: 2.7"/>
   </g>
   <g id="LineCollection_76">
    <path d="M 586.690504 90.796866 
L 514.187013 86.273306 
" clip-path="url(#pfbcc3f6355)" style="fill: none; stroke: #3d26a6; stroke-opacity: 0.240585; stroke-width: 2.7"/>
   </g>
   <g id="LineCollection_77">
    <path d="M 620.313103 145.949415 
L 683.533345 163.633155 
" clip-path="url(#pfbcc3f6355)" style="fill: none; stroke: #3d26a6; stroke-opacity: 0.425365; stroke-width: 2.7"/>
   </g>
   <g id="LineCollection_78">
    <path d="M 620.313103 145.949415 
L 550.414052 170.703383 
" clip-path="url(#pfbcc3f6355)" style="fill: none; stroke: #3d26a6; stroke-opacity: 0.220109; stroke-width: 2.7"/>
   </g>
   <g id="LineCollection_79">
    <path d="M 683.533345 163.633155 
L 700.134823 217.030902 
" clip-path="url(#pfbcc3f6355)" style="fill: none; stroke: #3d26a6; stroke-opacity: 0.004174; stroke-width: 2.7"/>
   </g>
   <g id="LineCollection_80">
    <path d="M 594.667055 343.396531 
L 526.94462 320.187207 
" clip-path="url(#pfbcc3f6355)" style="fill: none; stroke: #3d26a6; stroke-opacity: 0.077865; stroke-width: 2.7"/>
   </g>
   <g id="LineCollection_81">
    <path d="M 594.667055 343.396531 
L 640.905058 341.571115 
" clip-path="url(#pfbcc3f6355)" style="fill: none; stroke: #3d26a6; stroke-opacity: 0.17013; stroke-width: 2.7"/>
   </g>
   <g id="LineCollection_82">
    <path d="M 661.753747 263.961454 
L 690.990599 312.567924 
" clip-path="url(#pfbcc3f6355)" style="fill: none; stroke: #3d26a6; stroke-opacity: 0.676216; stroke-width: 2.7"/>
   </g>
   <g id="LineCollection_83">
    <path d="M 607.949306 216.617591 
L 646.466715 206.193785 
" clip-path="url(#pfbcc3f6355)" style="fill: none; stroke: #3d26a6; stroke-opacity: 0.112228; stroke-width: 2.7"/>
   </g>
   <g id="LineCollection_84">
    <path d="M 490.376337 160.452474 
L 477.024127 203.22585 
" clip-path="url(#pfbcc3f6355)" style="fill: none; stroke: #3d26a6; stroke-opacity: 0.94078; stroke-width: 2.7"/>
   </g>
   <g id="LineCollection_85">
    <path d="M 646.466715 206.193785 
L 633.335072 142.448796 
" clip-path="url(#pfbcc3f6355)" style="fill: none; stroke: #3d26a6; stroke-opacity: 0.33751; stroke-width: 2.7"/>
   </g>
   <g id="LineCollection_86">
    <path d="M 633.335072 142.448796 
L 592.766487 128.098498 
" clip-path="url(#pfbcc3f6355)" style="fill: none; stroke: #3d26a6; stroke-opacity: 0.186359; stroke-width: 2.7"/>
   </g>
   <g id="LineCollection_87">
    <path d="M 559.731319 63.797644 
L 525.122694 83.475672 
" clip-path="url(#pfbcc3f6355)" style="fill: none; stroke: #3d26a6; stroke-opacity: 0.095143; stroke-width: 2.7"/>
   </g>
   <g id="LineCollection_88">
    <path d="M 757.724315 260.476504 
L 749.846338 243.002915 
" clip-path="url(#pfbcc3f6355)" style="fill: none; stroke: #3d26a6; stroke-opacity: 0.372759; stroke-width: 2.7"/>
   </g>
   <g id="LineCollection_89">
    <path d="M 519.918808 233.161027 
L 495.38804 264.55746 
" clip-path="url(#pfbcc3f6355)" style="fill: none; stroke: #3d26a6; stroke-opacity: 0.021148; stroke-width: 2.7"/>
   </g>
   <g id="LineCollection_90">
    <path d="M 519.918808 233.161027 
L 550.414052 170.703383 
" clip-path="url(#pfbcc3f6355)" style="fill: none; stroke: #3d26a6; stroke-opacity: 0.1639; stroke-width: 2.7"/>
   </g>
   <g id="LineCollection_91">
    <path d="M 519.918808 233.161027 
L 522.632684 270.263326 
" clip-path="url(#pfbcc3f6355)" style="fill: none; stroke: #3d26a6; stroke-opacity: 0.429092; stroke-width: 2.7"/>
   </g>
   <g id="LineCollection_92">
    <path d="M 665.129644 216.333749 
L 591.594319 210.545299 
" clip-path="url(#pfbcc3f6355)" style="fill: none; stroke: #3d26a6; stroke-opacity: 0.381381; stroke-width: 2.7"/>
   </g>
   <g id="LineCollection_93">
    <path d="M 444.463135 152.305814 
L 488.083731 142.82274 
" clip-path="url(#pfbcc3f6355)" style="fill: none; stroke: #3d26a6; stroke-opacity: 0.142328; stroke-width: 2.7"/>
   </g>
   <g id="LineCollection_94">
    <path d="M 513.616067 209.256067 
L 577.4333 168.827796 
" clip-path="url(#pfbcc3f6355)" style="fill: none; stroke: #3d26a6; stroke-opacity: 0.433125; stroke-width: 2.7"/>
   </g>
   <g id="LineCollection_95">
    <path d="M 511.230652 152.676798 
L 530.86037 220.636344 
" clip-path="url(#pfbcc3f6355)" style="fill: none; stroke: #3d26a6; stroke-opacity: 0.027168; stroke-width: 2.7"/>
   </g>
   <g id="LineCollection_96">
    <path d="M 511.230652 152.676798 
L 525.122694 83.475672 
" clip-path="url(#pfbcc3f6355)" style="fill: none; stroke: #3d26a6; stroke-opacity: 0.474107; stroke-width: 2.7"/>
   </g>
   <g id="LineCollection_97">
    <path d="M 480.595607 114.220547 
L 488.083731 142.82274 
" clip-path="url(#pfbcc3f6355)" style="fill: none; stroke: #3d26a6; stroke-opacity: 0.045462; stroke-width: 2.7"/>
   </g>
   <g id="LineCollection_98">
    <path d="M 591.327242 240.818843 
L 618.800367 302.732446 
" clip-path="url(#pfbcc3f6355)" style="fill: none; stroke: #3d26a6; stroke-opacity: 0.515548; stroke-width: 2.7"/>
   </g>
   <g id="LineCollection_99">
    <path d="M 494.442592 237.971914 
L 453.992385 231.423969 
" clip-path="url(#pfbcc3f6355)" style="fill: none; stroke: #3d26a6; stroke-opacity: 0.292034; stroke-width: 2.7"/>
   </g>
   <g id="LineCollection_100">
    <path d="M 453.992385 231.423969 
L 428.096604 261.684748 
" clip-path="url(#pfbcc3f6355)" style="fill: none; stroke: #3d26a6; stroke-opacity: 0.563585; stroke-width: 2.7"/>
   </g>
   <g id="LineCollection_101">
    <path d="M 700.134823 217.030902 
L 680.745072 279.685352 
" clip-path="url(#pfbcc3f6355)" style="fill: none; stroke: #3d26a6; stroke-opacity: 0.255302; stroke-width: 2.7"/>
   </g>
   <g id="LineCollection_102">
    <path d="M 604.420447 111.369859 
L 663.550108 145.972605 
" clip-path="url(#pfbcc3f6355)" style="fill: none; stroke: #3d26a6; stroke-opacity: 0.376706; stroke-width: 2.7"/>
   </g>
   <g id="LineCollection_103">
    <path d="M 604.420447 111.369859 
L 577.4333 168.827796 
" clip-path="url(#pfbcc3f6355)" style="fill: none; stroke: #3d26a6; stroke-opacity: 0.234206; stroke-width: 2.7"/>
   </g>
   <g id="LineCollection_104">
    <path d="M 495.38804 264.55746 
L 530.86037 220.636344 
" clip-path="url(#pfbcc3f6355)" style="fill: none; stroke: #3d26a6; stroke-opacity: 0.097772; stroke-width: 2.7"/>
   </g>
   <g id="LineCollection_105">
    <path d="M 640.905058 341.571115 
L 618.800367 302.732446 
" clip-path="url(#pfbcc3f6355)" style="fill: none; stroke: #3d26a6; stroke-opacity: 0.649239; stroke-width: 2.7"/>
   </g>
   <g id="PathCollection_1">
    <defs>
     <path id="mb53e246959" d="M 0 4.330127 
C 1.148363 4.330127 2.249847 3.873878 3.061862 3.061862 
C 3.873878 2.249847 4.330127 1.148363 4.330127 0 
C 4.330127 -1.148363 3.873878 -2.249847 3.061862 -3.061862 
C 2.249847 -3.873878 1.148363 -4.330127 0 -4.330127 
C -1.148363 -4.330127 -2.249847 -3.873878 -3.061862 -3.061862 
C -3.873878 -2.249847 -4.330127 -1.148363 -4.330127 0 
C -4.330127 1.148363 -3.873878 2.249847 -3.061862 3.061862 
C -2.249847 3.873878 -1.148363 4.330127 0 4.330127 
z
" style="stroke: #000000"/>
    </defs>
    <g clip-path="url(#pfbcc3f6355)">
     <use xlink:href="#mb53e246959" x="523.396224" y="44.124553" style="fill: #ffffff; stroke: #000000"/>
     <use xlink:href="#mb53e246959" x="534.507179" y="169.169805" style="fill: #ffffff; stroke: #000000"/>
     <use xlink:href="#mb53e246959" x="546.039003" y="176.810528" style="fill: #ffffff; stroke: #000000"/>
     <use xlink:href="#mb53e246959" x="596.355836" y="170.983453" style="fill: #ffffff; stroke: #000000"/>
     <use xlink:href="#mb53e246959" x="645.57767" y="266.073265" style="fill: #ffffff; stroke: #000000"/>
     <use xlink:href="#mb53e246959" x="568.131716" y="185.284011" style="fill: #ffffff; stroke: #000000"/>
     <use xlink:href="#mb53e246959" x="648.60544" y="329.925773" style="fill: #ffffff; stroke: #000000"/>
     <use xlink:href="#mb53e246959" x="661.753747" y="263.961454" style="fill: #ffffff; stroke: #000000"/>
     <use xlink:href="#mb53e246959" x="490.376337" y="160.452474" style="fill: #ffffff; stroke: #000000"/>
     <use xlink:href="#mb53e246959" x="741.758411" y="289.652296" style="fill: #ffffff; stroke: #000000"/>
     <use xlink:href="#mb53e246959" x="633.335072" y="142.448796" style="fill: #ffffff; stroke: #000000"/>
     <use xlink:href="#mb53e246959" x="682.502877" y="190.187994" style="fill: #ffffff; stroke: #000000"/>
     <use xlink:href="#mb53e246959" x="522.632684" y="270.263326" style="fill: #ffffff; stroke: #000000"/>
     <use xlink:href="#mb53e246959" x="526.94462" y="320.187207" style="fill: #ffffff; stroke: #000000"/>
     <use xlink:href="#mb53e246959" x="444.463135" y="152.305814" style="fill: #ffffff; stroke: #000000"/>
     <use xlink:href="#mb53e246959" x="511.230652" y="152.676798" style="fill: #ffffff; stroke: #000000"/>
     <use xlink:href="#mb53e246959" x="591.327242" y="240.818843" style="fill: #ffffff; stroke: #000000"/>
     <use xlink:href="#mb53e246959" x="718.654854" y="163.69421" style="fill: #ffffff; stroke: #000000"/>
     <use xlink:href="#mb53e246959" x="700.134823" y="217.030902" style="fill: #ffffff; stroke: #000000"/>
     <use xlink:href="#mb53e246959" x="629.545509" y="200.028568" style="fill: #ffffff; stroke: #000000"/>
     <use xlink:href="#mb53e246959" x="428.096604" y="261.684748" style="fill: #ffffff; stroke: #000000"/>
     <use xlink:href="#mb53e246959" x="514.187013" y="86.273306" style="fill: #ffffff; stroke: #000000"/>
     <use xlink:href="#mb53e246959" x="530.86037" y="220.636344" style="fill: #ffffff; stroke: #000000"/>
     <use xlink:href="#mb53e246959" x="690.990599" y="312.567924" style="fill: #ffffff; stroke: #000000"/>
     <use xlink:href="#mb53e246959" x="488.083731" y="142.82274" style="fill: #ffffff; stroke: #000000"/>
     <use xlink:href="#mb53e246959" x="591.594319" y="210.545299" style="fill: #ffffff; stroke: #000000"/>
     <use xlink:href="#mb53e246959" x="618.800367" y="302.732446" style="fill: #ffffff; stroke: #000000"/>
     <use xlink:href="#mb53e246959" x="477.024127" y="203.22585" style="fill: #ffffff; stroke: #000000"/>
    </g>
   </g>
   <g id="PathCollection_2">
    <defs>
     <path id="m1741aba187" d="M 0 4.330127 
C 1.148363 4.330127 2.249847 3.873878 3.061862 3.061862 
C 3.873878 2.249847 4.330127 1.148363 4.330127 0 
C 4.330127 -1.148363 3.873878 -2.249847 3.061862 -3.061862 
C 2.249847 -3.873878 1.148363 -4.330127 0 -4.330127 
C -1.148363 -4.330127 -2.249847 -3.873878 -3.061862 -3.061862 
C -3.873878 -2.249847 -4.330127 -1.148363 -4.330127 0 
C -4.330127 1.148363 -3.873878 2.249847 -3.061862 3.061862 
C -2.249847 3.873878 -1.148363 4.330127 0 4.330127 
z
" style="stroke: #000000"/>
    </defs>
    <g clip-path="url(#pfbcc3f6355)">
     <use xlink:href="#m1741aba187" x="724.085604" y="184.128681" style="stroke: #000000"/>
     <use xlink:href="#m1741aba187" x="616.271395" y="248.997767" style="stroke: #000000"/>
     <use xlink:href="#m1741aba187" x="466.304919" y="94.900262" style="stroke: #000000"/>
     <use xlink:href="#m1741aba187" x="457.005952" y="294.760251" style="stroke: #000000"/>
     <use xlink:href="#m1741aba187" x="436.780919" y="220.871902" style="stroke: #000000"/>
     <use xlink:href="#m1741aba187" x="482.064688" y="263.168906" style="stroke: #000000"/>
     <use xlink:href="#m1741aba187" x="721.233353" y="222.346227" style="stroke: #000000"/>
     <use xlink:href="#m1741aba187" x="559.810564" y="246.564343" style="stroke: #000000"/>
     <use xlink:href="#m1741aba187" x="558.950892" y="218.992841" style="stroke: #000000"/>
     <use xlink:href="#m1741aba187" x="586.690504" y="90.796866" style="stroke: #000000"/>
     <use xlink:href="#m1741aba187" x="620.313103" y="145.949415" style="stroke: #000000"/>
     <use xlink:href="#m1741aba187" x="683.533345" y="163.633155" style="stroke: #000000"/>
     <use xlink:href="#m1741aba187" x="594.667055" y="343.396531" style="stroke: #000000"/>
     <use xlink:href="#m1741aba187" x="607.949306" y="216.617591" style="stroke: #000000"/>
     <use xlink:href="#m1741aba187" x="646.466715" y="206.193785" style="stroke: #000000"/>
     <use xlink:href="#m1741aba187" x="559.731319" y="63.797644" style="stroke: #000000"/>
     <use xlink:href="#m1741aba187" x="757.724315" y="260.476504" style="stroke: #000000"/>
     <use xlink:href="#m1741aba187" x="519.918808" y="233.161027" style="stroke: #000000"/>
     <use xlink:href="#m1741aba187" x="665.129644" y="216.333749" style="stroke: #000000"/>
     <use xlink:href="#m1741aba187" x="538.72563" y="110.517388" style="stroke: #000000"/>
     <use xlink:href="#m1741aba187" x="550.414052" y="170.703383" style="stroke: #000000"/>
     <use xlink:href="#m1741aba187" x="513.616067" y="209.256067" style="stroke: #000000"/>
     <use xlink:href="#m1741aba187" x="648.006253" y="311.213549" style="stroke: #000000"/>
     <use xlink:href="#m1741aba187" x="480.595607" y="114.220547" style="stroke: #000000"/>
     <use xlink:href="#m1741aba187" x="749.846338" y="243.002915" style="stroke: #000000"/>
     <use xlink:href="#m1741aba187" x="494.442592" y="237.971914" style="stroke: #000000"/>
     <use xlink:href="#m1741aba187" x="696.047493" y="175.695794" style="stroke: #000000"/>
     <use xlink:href="#m1741aba187" x="453.992385" y="231.423969" style="stroke: #000000"/>
     <use xlink:href="#m1741aba187" x="492.656698" y="312.405314" style="stroke: #000000"/>
     <use xlink:href="#m1741aba187" x="604.420447" y="111.369859" style="stroke: #000000"/>
     <use xlink:href="#m1741aba187" x="495.38804" y="264.55746" style="stroke: #000000"/>
     <use xlink:href="#m1741aba187" x="640.905058" y="341.571115" style="stroke: #000000"/>
     <use xlink:href="#m1741aba187" x="525.122694" y="83.475672" style="stroke: #000000"/>
     <use xlink:href="#m1741aba187" x="577.4333" y="168.827796" style="stroke: #000000"/>
     <use xlink:href="#m1741aba187" x="624.819455" y="101.498888" style="stroke: #000000"/>
     <use xlink:href="#m1741aba187" x="498.902915" y="68.815099" style="stroke: #000000"/>
     <use xlink:href="#m1741aba187" x="663.550108" y="145.972605" style="stroke: #000000"/>
     <use xlink:href="#m1741aba187" x="639.885233" y="131.552096" style="stroke: #000000"/>
     <use xlink:href="#m1741aba187" x="619.292205" y="174.623181" style="stroke: #000000"/>
     <use xlink:href="#m1741aba187" x="485.25102" y="186.675586" style="stroke: #000000"/>
     <use xlink:href="#m1741aba187" x="592.766487" y="128.098498" style="stroke: #000000"/>
     <use xlink:href="#m1741aba187" x="680.745072" y="279.685352" style="stroke: #000000"/>
    </g>
   </g>
   <g id="text_4">
    <!-- B -->
    <g transform="translate(410.00625 21.036997) scale(0.2 -0.2)">
     <defs>
      <path id="CMR17-42" d="M 333 4352 
L 333 4186 
C 774 4186 845 4186 845 3900 
L 845 452 
C 845 166 774 166 333 166 
L 333 0 
L 2534 0 
C 3354 0 3885 583 3885 1164 
C 3885 1741 3360 2233 2675 2233 
C 3290 2356 3718 2771 3718 3264 
C 3718 3802 3194 4352 2368 4352 
L 333 4352 
z
M 1248 2304 
L 1248 3937 
C 1248 4155 1261 4186 1517 4186 
L 2336 4186 
C 2970 4186 3251 3674 3251 3277 
C 3251 2791 2861 2304 2170 2304 
L 1248 2304 
z
M 1517 166 
C 1261 166 1248 197 1248 413 
L 1248 2202 
L 2432 2202 
C 3091 2202 3411 1625 3411 1162 
C 3411 699 3046 166 2349 166 
L 1517 166 
z
" transform="scale(0.015625)"/>
     </defs>
     <use xlink:href="#CMR17-42" transform="scale(0.996264)"/>
    </g>
   </g>
   <g id="legend_1">
    <g id="patch_24">
     <path d="M 659.383074 131.957262 
L 764.99375 131.957262 
Q 768.19375 131.957262 768.19375 128.757262 
L 768.19375 38.236997 
Q 768.19375 35.036997 764.99375 35.036997 
L 659.383074 35.036997 
Q 656.183074 35.036997 656.183074 38.236997 
L 656.183074 128.757262 
Q 656.183074 131.957262 659.383074 131.957262 
z
" style="fill: #ffffff; opacity: 0.8; stroke: #cccccc; stroke-linejoin: miter"/>
    </g>
    <g id="line2d_1">
     <path d="M 662.583074 47.036997 
L 678.583074 47.036997 
L 694.583074 47.036997 
" style="fill: none; stroke: #ffffff; stroke-width: 1.5; stroke-linecap: square"/>
     <defs>
      <path id="mf4f96ac2dc" d="M 0 5 
C 1.326016 5 2.597899 4.473168 3.535534 3.535534 
C 4.473168 2.597899 5 1.326016 5 0 
C 5 -1.326016 4.473168 -2.597899 3.535534 -3.535534 
C 2.597899 -4.473168 1.326016 -5 0 -5 
C -1.326016 -5 -2.597899 -4.473168 -3.535534 -3.535534 
C -4.473168 -2.597899 -5 -1.326016 -5 0 
C -5 1.326016 -4.473168 2.597899 -3.535534 3.535534 
C -2.597899 4.473168 -1.326016 5 0 5 
z
" style="stroke: #000000"/>
     </defs>
     <g>
      <use xlink:href="#mf4f96ac2dc" x="678.583074" y="47.036997" style="fill: #ffffff; stroke: #000000"/>
     </g>
    </g>
    <g id="text_5">
     <!-- $\sigma_i = +1$ -->
     <g transform="translate(707.383074 52.636997) scale(0.16 -0.16)">
      <use xlink:href="#CMMI12-1b" transform="scale(0.996264)"/>
      <use xlink:href="#CMMI12-69" transform="translate(55.445461 -14.943915) scale(0.697382)"/>
      <use xlink:href="#CMR17-3d" transform="translate(106.912509 0) scale(0.996264)"/>
      <use xlink:href="#CMR17-2b" transform="translate(206.301306 0) scale(0.996264)"/>
      <use xlink:href="#CMR17-31" transform="translate(278.016094 0) scale(0.996264)"/>
     </g>
    </g>
    <g id="line2d_2">
     <path d="M 662.583074 69.336473 
L 678.583074 69.336473 
L 694.583074 69.336473 
" style="fill: none; stroke: #ffffff; stroke-width: 1.5; stroke-linecap: square"/>
     <defs>
      <path id="me0023a85ab" d="M 0 5 
C 1.326016 5 2.597899 4.473168 3.535534 3.535534 
C 4.473168 2.597899 5 1.326016 5 0 
C 5 -1.326016 4.473168 -2.597899 3.535534 -3.535534 
C 2.597899 -4.473168 1.326016 -5 0 -5 
C -1.326016 -5 -2.597899 -4.473168 -3.535534 -3.535534 
C -4.473168 -2.597899 -5 -1.326016 -5 0 
C -5 1.326016 -4.473168 2.597899 -3.535534 3.535534 
C -2.597899 4.473168 -1.326016 5 0 5 
z
" style="stroke: #000000"/>
     </defs>
     <g>
      <use xlink:href="#me0023a85ab" x="678.583074" y="69.336473" style="stroke: #000000"/>
     </g>
    </g>
    <g id="text_6">
     <!-- $\sigma_i = -1$ -->
     <g transform="translate(707.383074 74.936473) scale(0.16 -0.16)">
      <defs>
       <path id="CMSY10-0" d="M 4218 1472 
C 4326 1472 4442 1472 4442 1600 
C 4442 1728 4326 1728 4218 1728 
L 755 1728 
C 646 1728 531 1728 531 1600 
C 531 1472 646 1472 755 1472 
L 4218 1472 
z
" transform="scale(0.015625)"/>
      </defs>
      <use xlink:href="#CMMI12-1b" transform="scale(0.996264)"/>
      <use xlink:href="#CMMI12-69" transform="translate(55.445461 -14.943915) scale(0.697382)"/>
      <use xlink:href="#CMR17-3d" transform="translate(106.912509 0) scale(0.996264)"/>
      <use xlink:href="#CMSY10-0" transform="translate(206.301306 0) scale(0.996264)"/>
      <use xlink:href="#CMR17-31" transform="translate(283.788774 0) scale(0.996264)"/>
     </g>
    </g>
    <g id="line2d_3">
     <path d="M 662.583074 91.635949 
L 678.583074 91.635949 
L 694.583074 91.635949 
" style="fill: none; stroke: #ff4126; stroke-opacity: 0.8; stroke-width: 2; stroke-linecap: square"/>
    </g>
    <g id="text_7">
     <!-- $J_{ij} &gt; 0$ -->
     <g transform="translate(707.383074 97.235949) scale(0.16 -0.16)">
      <defs>
       <path id="CMMI12-3e" d="M 4218 1449 
C 4339 1507 4346 1545 4346 1590 
C 4346 1628 4333 1673 4218 1725 
L 755 3322 
C 672 3360 659 3360 646 3360 
C 570 3360 525 3296 525 3245 
C 525 3168 576 3142 659 3104 
L 3949 1590 
L 653 65 
C 525 6 525 -39 525 -77 
C 525 -128 570 -192 646 -192 
C 659 -192 666 -185 755 -147 
L 4218 1449 
z
" transform="scale(0.015625)"/>
       <path id="CMR17-30" d="M 2688 2025 
C 2688 2416 2682 3080 2413 3591 
C 2176 4039 1798 4198 1466 4198 
C 1158 4198 768 4058 525 3597 
C 269 3118 243 2524 243 2025 
C 243 1661 250 1106 448 619 
C 723 -39 1216 -128 1466 -128 
C 1760 -128 2208 -7 2470 600 
C 2662 1042 2688 1559 2688 2025 
z
M 1466 -26 
C 1056 -26 813 325 723 812 
C 653 1188 653 1738 653 2096 
C 653 2588 653 2997 736 3387 
C 858 3929 1216 4096 1466 4096 
C 1728 4096 2067 3923 2189 3400 
C 2272 3036 2278 2607 2278 2096 
C 2278 1680 2278 1169 2202 792 
C 2067 95 1690 -26 1466 -26 
z
" transform="scale(0.015625)"/>
      </defs>
      <use xlink:href="#CMMI12-4a" transform="scale(0.996264)"/>
      <use xlink:href="#CMMI12-69" transform="translate(53.917955 -14.943915) scale(0.697382)"/>
      <use xlink:href="#CMMI12-6a" transform="translate(77.212863 -14.943915) scale(0.697382)"/>
      <use xlink:href="#CMMI12-3e" transform="translate(137.558588 0) scale(0.996264)"/>
      <use xlink:href="#CMR17-30" transform="translate(241.104692 0) scale(0.996264)"/>
     </g>
    </g>
    <g id="line2d_4">
     <path d="M 662.583074 115.396606 
L 678.583074 115.396606 
L 694.583074 115.396606 
" style="fill: none; stroke: #3d26a6; stroke-opacity: 0.8; stroke-width: 2; stroke-linecap: square"/>
    </g>
    <g id="text_8">
     <!-- $J_{ij} &lt; 0$ -->
     <g transform="translate(707.383074 120.996606) scale(0.16 -0.16)">
      <defs>
       <path id="CMMI12-3c" d="M 4218 3104 
C 4333 3155 4346 3200 4346 3238 
C 4346 3309 4294 3360 4224 3360 
C 4211 3360 4205 3353 4115 3315 
L 653 1719 
C 538 1667 525 1622 525 1584 
C 525 1539 531 1501 653 1442 
L 4115 -154 
C 4198 -192 4211 -192 4224 -192 
C 4294 -192 4346 -141 4346 -70 
C 4346 -32 4333 13 4218 64 
L 922 1581 
L 4218 3104 
z
" transform="scale(0.015625)"/>
      </defs>
      <use xlink:href="#CMMI12-4a" transform="scale(0.996264)"/>
      <use xlink:href="#CMMI12-69" transform="translate(53.917955 -14.943915) scale(0.697382)"/>
      <use xlink:href="#CMMI12-6a" transform="translate(77.212863 -14.943915) scale(0.697382)"/>
      <use xlink:href="#CMMI12-3c" transform="translate(137.558588 0) scale(0.996264)"/>
      <use xlink:href="#CMR17-30" transform="translate(241.104692 0) scale(0.996264)"/>
     </g>
    </g>
   </g>
  </g>
  <g id="axes_3">
   <g id="patch_25">
    <path d="M 812.8125 359.676997 
L 1179 359.676997 
L 1179 27.036997 
L 812.8125 27.036997 
z
" style="fill: #ffffff"/>
   </g>
   <g id="matplotlib.axis_1">
    <g id="xtick_1">
     <g id="line2d_5"/>
    </g>
    <g id="xtick_2">
     <g id="line2d_6"/>
    </g>
    <g id="xtick_3">
     <g id="line2d_7"/>
    </g>
    <g id="xtick_4">
     <g id="line2d_8"/>
    </g>
    <g id="xtick_5">
     <g id="line2d_9"/>
    </g>
    <g id="xtick_6">
     <g id="line2d_10"/>
    </g>
    <g id="xtick_7">
     <g id="line2d_11"/>
    </g>
    <g id="xtick_8">
     <g id="line2d_12"/>
    </g>
    <g id="xtick_9">
     <g id="line2d_13"/>
    </g>
    <g id="text_9">
     <!-- $\vec{\sigma}$ -->
     <g transform="translate(990.687592 379.630297) scale(0.18 -0.18)">
      <use xlink:href="#CMMI12-7e" transform="scale(0.996264)"/>
      <use xlink:href="#CMMI12-1b" transform="translate(2.53964 0) scale(0.996264)"/>
     </g>
    </g>
   </g>
   <g id="matplotlib.axis_2">
    <g id="ytick_1">
     <g id="line2d_14"/>
    </g>
    <g id="ytick_2">
     <g id="line2d_15"/>
    </g>
    <g id="ytick_3">
     <g id="line2d_16"/>
    </g>
    <g id="ytick_4">
     <g id="line2d_17"/>
    </g>
    <g id="ytick_5">
     <g id="line2d_18"/>
    </g>
    <g id="ytick_6">
     <g id="line2d_19"/>
    </g>
    <g id="ytick_7">
     <g id="line2d_20"/>
    </g>
    <g id="ytick_8">
     <g id="line2d_21"/>
    </g>
    <g id="text_10">
     <!-- $F(\vec{\sigma})$ -->
     <g transform="translate(800.844316 211.922037) rotate(-90) scale(0.18 -0.18)">
      <use xlink:href="#CMMI12-46" transform="scale(0.996264)"/>
      <use xlink:href="#CMR17-28" transform="translate(76.696793 0) scale(0.996264)"/>
      <use xlink:href="#CMMI12-7e" transform="translate(109.43792 0) scale(0.996264)"/>
      <use xlink:href="#CMMI12-1b" transform="translate(111.97756 0) scale(0.996264)"/>
      <use xlink:href="#CMR17-29" transform="translate(170.997614 0) scale(0.996264)"/>
     </g>
    </g>
   </g>
   <g id="line2d_22">
    <path d="M 829.457386 344.556023 
L 846.583218 344.456258 
L 851.476313 344.246907 
L 854.738376 343.931628 
L 857.184923 343.52502 
L 859.631471 342.890448 
L 861.262502 342.290422 
L 862.893534 341.503823 
L 864.524565 340.483545 
L 866.155597 339.174258 
L 867.786628 337.512115 
L 869.41766 335.424828 
L 871.048692 332.832238 
L 872.679723 329.647474 
L 874.310755 325.77882 
L 875.941786 321.132355 
L 877.572818 315.615408 
L 879.20385 309.140823 
L 880.834881 301.631948 
L 882.465913 293.028221 
L 884.096944 283.291108 
L 885.727976 272.410119 
L 887.359007 260.408526 
L 889.805555 240.452307 
L 892.252102 218.516063 
L 896.329681 179.336755 
L 900.40726 140.593847 
L 902.853807 119.685477 
L 904.484839 107.432195 
L 906.115871 96.900687 
L 907.746902 88.373172 
L 908.562418 84.936445 
L 909.377934 82.084438 
L 910.193449 79.837327 
L 911.008965 78.21111 
L 911.824481 77.217425 
L 912.639997 76.863405 
L 913.455513 77.151596 
L 914.271028 78.079926 
L 915.086544 79.641728 
L 915.90206 81.825822 
L 916.717576 84.616647 
L 917.533092 87.994448 
L 919.164123 96.41241 
L 920.795155 106.84766 
L 922.426186 119.020118 
L 924.872734 139.8392 
L 928.134797 170.585703 
L 933.843407 225.253335 
L 936.289955 246.651821 
L 938.736502 265.929441 
L 940.367534 277.433452 
L 941.998565 287.801898 
L 943.629597 297.027331 
L 945.260628 305.133557 
L 946.89166 312.16974 
L 948.522692 318.204384 
L 950.153723 323.319513 
L 951.784755 327.605334 
L 953.415786 331.155558 
L 955.046818 334.063497 
L 956.677849 336.41897 
L 958.308881 338.306023 
L 959.939913 339.80139 
L 961.570944 340.973607 
L 963.201976 341.882687 
L 964.833007 342.580215 
L 967.279555 343.323155 
L 969.726102 343.803337 
L 972.988165 344.179313 
L 977.065744 344.406132 
L 984.405386 344.53215 
L 991.745028 344.553645 
L 991.745028 344.553645 
" clip-path="url(#pe550b80889)" style="fill: none; stroke: #ff4126; stroke-width: 2; stroke-linecap: square"/>
   </g>
   <g id="line2d_23">
    <path d="M 1000.067472 344.556997 
L 1012.300208 344.463926 
L 1014.746756 344.222164 
L 1016.377787 343.822965 
L 1017.193303 343.492083 
L 1018.008819 343.032713 
L 1018.824335 342.404157 
L 1019.639851 341.556465 
L 1020.455366 340.429589 
L 1021.270882 338.952887 
L 1022.086398 337.045097 
L 1022.901914 334.614927 
L 1023.717429 331.562366 
L 1024.532945 327.780792 
L 1025.348461 323.159912 
L 1026.163977 317.589514 
L 1026.979493 310.963945 
L 1027.795008 303.187201 
L 1028.610524 294.178461 
L 1030.241556 272.252517 
L 1031.872587 245.064375 
L 1033.503619 213.099876 
L 1035.950166 159.143877 
L 1038.396714 105.141837 
L 1040.027745 74.564001 
L 1040.843261 62.272639 
L 1041.658777 52.55699 
L 1042.474293 45.787703 
L 1043.289808 42.256987 
L 1044.105324 42.156997 
L 1044.92084 45.562437 
L 1045.736356 52.419244 
L 1046.551872 62.540748 
L 1047.367387 75.612062 
L 1048.998419 108.78595 
L 1053.891514 221.412154 
L 1054.707029 235.866728 
L 1055.522545 247.860563 
L 1056.338061 257.122995 
L 1057.153577 263.477298 
L 1057.969093 266.839604 
L 1058.784608 267.216588 
L 1059.600124 264.702772 
L 1060.41564 259.47785 
L 1061.231156 251.803885 
L 1062.046672 242.021777 
L 1063.677703 217.856642 
L 1066.939766 166.071127 
L 1067.755282 155.736003 
L 1068.570798 147.487744 
L 1069.386314 141.72009 
L 1070.201829 138.716 
L 1071.017345 138.63181 
L 1071.832861 141.489245 
L 1072.648377 147.176226 
L 1073.463893 155.456494 
L 1074.279408 165.9872 
L 1075.91044 192.042978 
L 1079.988019 263.605387 
L 1081.619051 286.169089 
L 1082.434566 295.100847 
L 1083.250082 302.304636 
L 1084.065598 307.720814 
L 1084.881114 311.326614 
L 1085.696629 313.127195 
L 1086.512145 313.149148 
L 1087.327661 311.437178 
L 1088.143177 308.054194 
L 1088.958693 303.084528 
L 1089.774208 296.639501 
L 1090.589724 288.864188 
L 1092.220756 270.109374 
L 1096.298335 218.296312 
L 1097.113851 209.997549 
L 1097.929366 203.241329 
L 1098.744882 198.316229 
L 1099.560398 195.435223 
L 1100.375914 194.720359 
L 1101.191429 196.193114 
L 1102.006945 199.771366 
L 1102.822461 205.273208 
L 1103.637977 212.427107 
L 1105.269008 230.252633 
L 1107.715556 259.373267 
L 1108.531072 267.956667 
L 1109.346587 275.304116 
L 1110.162103 281.070927 
L 1110.977619 284.963241 
L 1111.793135 286.74297 
L 1112.60865 286.231807 
L 1113.424166 283.315193 
L 1114.239682 277.946818 
L 1115.055198 270.153779 
L 1115.870714 260.041973 
L 1116.686229 247.800817 
L 1118.317261 218.118702 
L 1122.39484 135.239501 
L 1123.210356 121.644884 
L 1124.025872 110.304537 
L 1124.841387 101.626296 
L 1125.656903 95.905802 
L 1126.472419 93.311208 
L 1127.287935 93.876841 
L 1128.10345 97.506321 
L 1128.918966 103.984632 
L 1129.734482 112.997708 
L 1130.549998 124.157378 
L 1132.181029 151.159932 
L 1137.074124 240.184767 
L 1138.705156 265.000329 
L 1140.336187 285.764309 
L 1141.967219 302.463511 
L 1143.59825 315.412267 
L 1144.413766 320.627235 
L 1145.229282 325.092213 
L 1146.044798 328.877379 
L 1146.860314 332.053266 
L 1147.675829 334.68941 
L 1148.491345 336.853171 
L 1149.306861 338.608692 
L 1150.122377 340.016018 
L 1150.937893 341.130385 
L 1151.753408 342.001702 
L 1152.568924 342.674256 
L 1154.199956 343.571824 
L 1155.830987 344.066621 
L 1157.462019 344.32501 
L 1159.908566 344.488472 
L 1162.355114 344.539005 
L 1162.355114 344.539005 
" clip-path="url(#pe550b80889)" style="fill: none; stroke: #3d26a6; stroke-width: 2; stroke-linecap: square"/>
   </g>
   <g id="patch_26">
    <path d="M 812.8125 359.676997 
L 812.8125 27.036997 
" style="fill: none; stroke: #000000; stroke-linejoin: miter; stroke-linecap: square"/>
   </g>
   <g id="patch_27">
    <path d="M 812.8125 359.676997 
L 1179 359.676997 
" style="fill: none; stroke: #000000; stroke-linejoin: miter; stroke-linecap: square"/>
   </g>
   <g id="text_11">
    <!-- C -->
    <g transform="translate(812.8125 21.036997) scale(0.2 -0.2)">
     <defs>
      <path id="CMR17-43" d="M 3974 4289 
C 3974 4403 3968 4410 3930 4410 
C 3904 4410 3898 4403 3853 4327 
L 3571 3792 
C 3258 4187 2874 4416 2381 4416 
C 1286 4416 294 3456 294 2148 
C 294 826 1286 -128 2387 -128 
C 3366 -128 3974 730 3974 1461 
C 3974 1524 3974 1550 3917 1550 
C 3866 1550 3866 1531 3859 1474 
C 3808 585 3168 38 2477 38 
C 1824 38 781 495 781 2147 
C 781 3805 1843 4250 2464 4250 
C 3187 4250 3712 3628 3834 2745 
C 3846 2668 3846 2655 3904 2655 
C 3974 2655 3974 2668 3974 2783 
L 3974 4289 
z
" transform="scale(0.015625)"/>
     </defs>
     <use xlink:href="#CMR17-43" transform="scale(0.996264)"/>
    </g>
   </g>
   <g id="legend_2">
    <g id="patch_28">
     <path d="M 1066.797506 91.613125 
L 1166.4 91.613125 
Q 1170 91.613125 1170 88.013125 
L 1170 39.636997 
Q 1170 36.036997 1166.4 36.036997 
L 1066.797506 36.036997 
Q 1063.197506 36.036997 1063.197506 39.636997 
L 1063.197506 88.013125 
Q 1063.197506 91.613125 1066.797506 91.613125 
z
" style="fill: #ffffff; opacity: 0.8; stroke: #cccccc; stroke-linejoin: miter"/>
    </g>
    <g id="line2d_24">
     <path d="M 1070.397506 49.536997 
L 1088.397506 49.536997 
L 1106.397506 49.536997 
" style="fill: none; stroke: #ff4126; stroke-width: 2; stroke-linecap: square"/>
    </g>
    <g id="text_12">
     <!-- $\beta=0$ -->
     <g transform="translate(1120.797506 55.836997) scale(0.18 -0.18)">
      <defs>
       <path id="CMMI12-c" d="M 3622 3701 
C 3622 4081 3296 4480 2714 4480 
C 1888 4480 1363 3477 1197 2816 
L 186 -1172 
C 173 -1223 211 -1236 243 -1236 
C 288 -1236 320 -1230 326 -1198 
L 774 586 
C 838 229 1190 -64 1568 -64 
C 2483 -64 3347 650 3347 1599 
C 3347 1841 3290 2083 3155 2287 
C 3078 2408 2982 2497 2880 2574 
C 3341 2815 3622 3200 3622 3701 
z
M 2509 2580 
C 2406 2542 2304 2529 2182 2529 
C 2093 2529 2010 2523 1894 2561 
C 1958 2606 2054 2618 2189 2618 
C 2304 2618 2419 2606 2509 2580 
z
M 3290 3758 
C 3290 3410 3117 2903 2701 2669 
C 2579 2718 2413 2752 2272 2752 
C 2138 2752 1754 2752 1754 2555 
C 1754 2389 2106 2389 2214 2389 
C 2381 2389 2528 2432 2682 2484 
C 2886 2318 2976 2101 2976 1783 
C 2976 1413 2874 1115 2752 841 
C 2541 369 2042 64 1600 64 
C 1133 64 890 432 890 864 
C 890 922 890 1005 915 1099 
L 1331 2771 
C 1542 3603 2080 4353 2701 4353 
C 3162 4353 3290 4036 3290 3758 
z
" transform="scale(0.015625)"/>
      </defs>
      <use xlink:href="#CMMI12-c" transform="scale(0.996264)"/>
      <use xlink:href="#CMR17-3d" transform="translate(88.268024 0) scale(0.996264)"/>
      <use xlink:href="#CMR17-30" transform="translate(187.656822 0) scale(0.996264)"/>
     </g>
    </g>
    <g id="line2d_25">
     <path d="M 1070.397506 74.625061 
L 1088.397506 74.625061 
L 1106.397506 74.625061 
" style="fill: none; stroke: #3d26a6; stroke-width: 2; stroke-linecap: square"/>
    </g>
    <g id="text_13">
     <!-- $\beta=1$ -->
     <g transform="translate(1120.797506 80.925061) scale(0.18 -0.18)">
      <use xlink:href="#CMMI12-c" transform="scale(0.996264)"/>
      <use xlink:href="#CMR17-3d" transform="translate(88.268024 0) scale(0.996264)"/>
      <use xlink:href="#CMR17-31" transform="translate(187.656822 0) scale(0.996264)"/>
     </g>
    </g>
   </g>
  </g>
 </g>
 <defs>
  <clipPath id="p53192bc3ee">
   <rect x="7.2" y="27.036997" width="366.1875" height="332.64"/>
  </clipPath>
  <clipPath id="pfbcc3f6355">
   <rect x="410.00625" y="27.036997" width="366.1875" height="332.64"/>
  </clipPath>
  <clipPath id="pe550b80889">
   <rect x="812.8125" y="27.036997" width="366.1875" height="332.64"/>
  </clipPath>
 </defs>
</svg>
