<?xml version="1.0" encoding="utf-8" standalone="no"?>
<!DOCTYPE svg PUBLIC "-//W3C//DTD SVG 1.1//EN"
  "http://www.w3.org/Graphics/SVG/1.1/DTD/svg11.dtd">
<svg xmlns:xlink="http://www.w3.org/1999/xlink" width="1186.2pt" height="394.580145pt" viewBox="0 0 1186.2 394.580145" xmlns="http://www.w3.org/2000/svg" version="1.1">
 <metadata>
  <rdf:RDF xmlns:dc="http://purl.org/dc/elements/1.1/" xmlns:cc="http://creativecommons.org/ns#" xmlns:rdf="http://www.w3.org/1999/02/22-rdf-syntax-ns#">
   <cc:Work>
    <dc:type rdf:resource="http://purl.org/dc/dcmitype/StillImage"/>
    <dc:date>2025-04-01T13:13:48.300026</dc:date>
    <dc:format>image/svg+xml</dc:format>
    <dc:creator>
     <cc:Agent>
      <dc:title>Matplotlib v3.9.2, https://matplotlib.org/</dc:title>
     </cc:Agent>
    </dc:creator>
   </cc:Work>
  </rdf:RDF>
 </metadata>
 <defs>
  <style type="text/css">*{stroke-linejoin: round; stroke-linecap: butt}</style>
 </defs>
 <g id="figure_1">
  <g id="patch_1">
   <path d="M 0 394.580145 
L 1186.2 394.580145 
L 1186.2 0 
L 0 0 
z
" style="fill: #ffffff"/>
  </g>
  <g id="axes_1">
   <g id="patch_2">
    <path d="M 37.46343 262.66752 
L 67.72686 262.66752 
L 67.72686 222.75072 
L 37.46343 222.75072 
z
" clip-path="url(#p6ff37b9ae6)" style="fill: #ad366e; stroke: #000000; stroke-linejoin: miter"/>
   </g>
   <g id="patch_3">
    <path d="M 67.72686 262.66752 
L 97.990289 262.66752 
L 97.990289 222.75072 
L 67.72686 222.75072 
z
" clip-path="url(#p6ff37b9ae6)" style="fill: #eb7308; stroke: #000000; stroke-linejoin: miter"/>
   </g>
   <g id="patch_4">
    <path d="M 97.990289 262.66752 
L 128.253719 262.66752 
L 128.253719 222.75072 
L 97.990289 222.75072 
z
" clip-path="url(#p6ff37b9ae6)" style="fill: #eb7308; stroke: #000000; stroke-linejoin: miter"/>
   </g>
   <g id="patch_5">
    <path d="M 128.253719 262.66752 
L 158.517149 262.66752 
L 158.517149 222.75072 
L 128.253719 222.75072 
z
" clip-path="url(#p6ff37b9ae6)" style="fill: #ad366e; stroke: #000000; stroke-linejoin: miter"/>
   </g>
   <g id="patch_6">
    <path d="M 158.517149 262.66752 
L 188.780579 262.66752 
L 188.780579 222.75072 
L 158.517149 222.75072 
z
" clip-path="url(#p6ff37b9ae6)" style="fill: #ad366e; stroke: #000000; stroke-linejoin: miter"/>
   </g>
   <g id="patch_7">
    <path d="M 188.780579 262.66752 
L 219.044008 262.66752 
L 219.044008 222.75072 
L 188.780579 222.75072 
z
" clip-path="url(#p6ff37b9ae6)" style="fill: #eb7308; stroke: #000000; stroke-linejoin: miter"/>
   </g>
   <g id="patch_8">
    <path d="M 219.044008 262.66752 
L 249.307438 262.66752 
L 249.307438 222.75072 
L 219.044008 222.75072 
z
" clip-path="url(#p6ff37b9ae6)" style="fill: #ad366e; stroke: #000000; stroke-linejoin: miter"/>
   </g>
   <g id="patch_9">
    <path d="M 249.307438 262.66752 
L 279.570868 262.66752 
L 279.570868 222.75072 
L 249.307438 222.75072 
z
" clip-path="url(#p6ff37b9ae6)" style="fill: #ad366e; stroke: #000000; stroke-linejoin: miter"/>
   </g>
   <g id="patch_10">
    <path d="M 279.570868 262.66752 
L 309.834298 262.66752 
L 309.834298 222.75072 
L 279.570868 222.75072 
z
" clip-path="url(#p6ff37b9ae6)" style="fill: #eb7308; stroke: #000000; stroke-linejoin: miter"/>
   </g>
   <g id="patch_11">
    <path d="M 309.834298 262.66752 
L 340.097727 262.66752 
L 340.097727 222.75072 
L 309.834298 222.75072 
z
" clip-path="url(#p6ff37b9ae6)" style="fill: #ad366e; stroke: #000000; stroke-linejoin: miter"/>
   </g>
   <g id="patch_12">
    <path d="M 340.097727 262.66752 
L 370.361157 262.66752 
L 370.361157 222.75072 
L 340.097727 222.75072 
z
" clip-path="url(#p6ff37b9ae6)" style="fill: #ad366e; stroke: #000000; stroke-linejoin: miter"/>
   </g>
   <g id="text_1">
    <!-- $ \displaystyle F(\vec{\sigma}) = \sum_{i=1}^{N} \sigma_i h_i + \frac{1}{2} \sum_{i,j=1}^{N} \sigma_i J_{ij} \sigma_j $ -->
    <g transform="translate(22.303239 91.220389) scale(0.26 -0.26)">
     <defs>
      <path id="CMMI12-46" d="M 1901 2055 
L 2515 2055 
C 3002 2055 3040 1946 3040 1761 
C 3040 1678 3027 1589 2995 1448 
C 2982 1423 2976 1391 2976 1378 
C 2976 1333 3002 1308 3046 1308 
C 3098 1308 3104 1333 3130 1435 
L 3501 2935 
C 3501 2961 3482 2999 3437 2999 
C 3379 2999 3373 2974 3347 2863 
C 3213 2376 3085 2240 2528 2240 
L 1946 2240 
L 2362 3926 
C 2419 4154 2432 4154 2694 4154 
L 3552 4154 
C 4352 4154 4467 3918 4467 3464 
C 4467 3426 4467 3285 4448 3119 
C 4442 3094 4429 3011 4429 2985 
C 4429 2934 4461 2915 4499 2915 
C 4544 2915 4570 2941 4582 3055 
L 4717 4174 
C 4717 4195 4730 4263 4730 4277 
C 4730 4352 4672 4352 4557 4352 
L 1523 4352 
C 1402 4352 1338 4352 1338 4229 
C 1338 4154 1382 4154 1491 4154 
C 1888 4154 1888 4113 1888 4050 
C 1888 4018 1882 3992 1862 3922 
L 998 473 
C 941 249 928 185 480 185 
C 358 185 294 185 294 70 
C 294 0 352 0 390 0 
C 512 0 640 0 762 0 
L 1594 0 
C 1734 0 1888 0 2029 0 
C 2086 0 2163 0 2163 115 
C 2163 185 2125 185 1984 185 
C 1478 185 1466 229 1466 324 
C 1466 356 1478 406 1491 449 
L 1901 2055 
z
" transform="scale(0.015625)"/>
      <path id="CMR17-28" d="M 1958 -1561 
C 1958 -1555 1958 -1542 1939 -1523 
C 1645 -1224 858 -407 858 1581 
C 858 3569 1632 4379 1946 4697 
C 1946 4704 1958 4717 1958 4736 
C 1958 4755 1939 4768 1914 4768 
C 1843 4768 1299 4296 986 3594 
C 666 2887 576 2199 576 1588 
C 576 1128 621 351 1005 -471 
C 1312 -1135 1837 -1600 1914 -1600 
C 1946 -1600 1958 -1587 1958 -1561 
z
" transform="scale(0.015625)"/>
      <path id="CMMI12-7e" d="M 3424 3835 
C 3347 3764 3110 3540 3110 3451 
C 3110 3387 3168 3329 3232 3329 
C 3290 3329 3315 3368 3360 3432 
C 3514 3624 3686 3745 3834 3828 
C 3898 3867 3942 3886 3942 3956 
C 3942 4014 3891 4046 3853 4078 
C 3674 4200 3629 4372 3610 4449 
C 3590 4500 3571 4577 3482 4577 
C 3443 4577 3366 4552 3366 4456 
C 3366 4398 3405 4244 3526 4072 
L 1376 4072 
C 1267 4072 1158 4072 1158 3950 
C 1158 3835 1274 3835 1376 3835 
L 3424 3835 
z
" transform="scale(0.015625)"/>
      <path id="CMMI12-1b" d="M 3251 2408 
C 3334 2408 3546 2408 3546 2612 
C 3546 2752 3424 2752 3309 2752 
L 1894 2752 
C 934 2752 243 1686 243 932 
C 243 390 595 -64 1171 -64 
C 1926 -64 2752 747 2752 1705 
C 2752 1954 2694 2196 2541 2408 
L 3251 2408 
z
M 1178 64 
C 851 64 614 313 614 754 
C 614 1137 845 2408 1786 2408 
C 2061 2408 2368 2274 2368 1781 
C 2368 1558 2266 1021 2042 652 
C 1811 275 1466 64 1178 64 
z
" transform="scale(0.015625)"/>
      <path id="CMR17-29" d="M 1683 1581 
C 1683 2040 1638 2817 1254 3639 
C 947 4303 422 4768 346 4768 
C 326 4768 301 4761 301 4729 
C 301 4717 307 4710 314 4697 
C 621 4378 1402 3568 1402 1584 
C 1402 -407 627 -1217 314 -1537 
C 307 -1549 301 -1556 301 -1568 
C 301 -1600 326 -1600 346 -1600 
C 416 -1600 960 -1128 1274 -426 
C 1594 281 1683 969 1683 1581 
z
" transform="scale(0.015625)"/>
      <path id="CMR17-3d" d="M 4115 2017 
C 4211 2017 4307 2017 4307 2125 
C 4307 2240 4198 2240 4090 2240 
L 512 2240 
C 403 2240 294 2240 294 2125 
C 294 2017 390 2017 486 2017 
L 4115 2017 
z
M 4090 896 
C 4198 896 4307 896 4307 1011 
C 4307 1119 4211 1119 4115 1119 
L 486 1119 
C 390 1119 294 1119 294 1011 
C 294 896 403 896 512 896 
L 4090 896 
z
" transform="scale(0.015625)"/>
      <path id="CMMI12-4e" d="M 4736 3698 
C 4806 3974 4909 4166 5395 4166 
C 5414 4166 5491 4166 5491 4279 
C 5491 4352 5434 4352 5408 4352 
C 5280 4352 4954 4352 4826 4352 
L 4518 4352 
C 4429 4352 4314 4352 4224 4352 
C 4186 4352 4109 4352 4109 4230 
C 4109 4166 4160 4166 4205 4166 
C 4589 4166 4614 4019 4614 3903 
C 4614 3846 4608 3826 4589 3737 
L 3866 850 
L 2496 4249 
C 2451 4352 2445 4352 2304 4352 
L 1523 4352 
C 1395 4352 1338 4352 1338 4230 
C 1338 4166 1382 4166 1504 4166 
C 1536 4166 1914 4166 1914 4115 
C 1914 4102 1901 4051 1894 4032 
L 1043 635 
C 966 320 813 186 390 186 
C 358 186 294 186 294 67 
C 294 0 358 0 378 0 
C 506 0 832 0 960 0 
L 1267 0 
C 1357 0 1466 0 1555 0 
C 1600 0 1670 0 1670 122 
C 1670 180 1606 186 1581 186 
C 1370 186 1165 224 1165 454 
C 1165 505 1178 562 1190 613 
L 2054 4032 
C 2093 3968 2093 3956 2118 3898 
L 3642 115 
C 3674 38 3686 0 3744 0 
C 3808 0 3814 19 3840 128 
L 4736 3698 
z
" transform="scale(0.015625)"/>
      <path id="CMEX10-58" d="M 8102 -8959 
L 8877 -6911 
L 8717 -6911 
C 8467 -7577 7789 -8012 7053 -8204 
C 6918 -8236 6291 -8402 5062 -8402 
L 1203 -8402 
L 4461 -4581 
C 4506 -4530 4518 -4511 4518 -4479 
C 4518 -4466 4518 -4447 4474 -4383 
L 1491 -306 
L 4998 -306 
C 5856 -306 6438 -396 6496 -409 
C 6842 -460 7398 -569 7904 -889 
C 8064 -991 8499 -1279 8717 -1797 
L 8877 -1797 
L 8102 1 
L 538 1 
C 390 1 384 -5 365 -44 
C 358 -63 358 -185 358 -255 
L 3744 -4888 
L 429 -8773 
C 365 -8850 365 -8882 365 -8889 
C 365 -8959 422 -8959 538 -8959 
L 8102 -8959 
z
" transform="scale(0.015625)"/>
      <path id="CMMI12-69" d="M 1811 913 
C 1811 945 1786 971 1747 971 
C 1690 971 1683 952 1651 843 
C 1485 262 1222 64 1011 64 
C 934 64 845 83 845 275 
C 845 447 922 639 992 830 
L 1440 2018 
C 1459 2069 1504 2184 1504 2305 
C 1504 2574 1312 2816 998 2816 
C 410 2816 173 1890 173 1839 
C 173 1814 198 1782 243 1782 
C 301 1782 307 1807 333 1896 
C 486 2428 730 2682 979 2682 
C 1037 2682 1146 2682 1146 2478 
C 1146 2312 1062 2101 1011 1961 
L 563 773 
C 525 671 486 568 486 453 
C 486 166 685 -64 992 -64 
C 1581 -64 1811 869 1811 913 
z
M 1760 4013 
C 1760 4109 1683 4224 1542 4224 
C 1395 4224 1229 4083 1229 3917 
C 1229 3758 1363 3707 1440 3707 
C 1613 3707 1760 3873 1760 4013 
z
" transform="scale(0.015625)"/>
      <path id="CMR17-31" d="M 1702 4058 
C 1702 4192 1696 4192 1606 4192 
C 1357 3916 979 3827 621 3827 
C 602 3827 570 3827 563 3808 
C 557 3795 557 3782 557 3648 
C 755 3648 1088 3686 1344 3839 
L 1344 461 
C 1344 236 1331 160 781 160 
L 589 160 
L 589 0 
C 896 0 1216 0 1523 0 
C 1830 0 2150 0 2458 0 
L 2458 160 
L 2266 160 
C 1715 160 1702 230 1702 458 
L 1702 4058 
z
" transform="scale(0.015625)"/>
      <path id="CMMI12-68" d="M 1798 4257 
C 1805 4283 1818 4321 1818 4352 
C 1818 4416 1754 4416 1741 4416 
C 1734 4416 1421 4388 1389 4380 
C 1280 4373 1184 4358 1069 4358 
C 909 4345 864 4339 864 4224 
C 864 4160 915 4160 1005 4160 
C 1318 4160 1325 4103 1325 4040 
C 1325 4002 1312 3951 1306 3932 
L 378 248 
C 352 152 352 140 352 101 
C 352 -38 461 -64 525 -64 
C 634 -64 717 19 749 89 
L 1037 1245 
C 1069 1386 1107 1520 1139 1660 
C 1210 1929 1210 1935 1331 2120 
C 1453 2305 1741 2689 2234 2689 
C 2490 2689 2579 2497 2579 2242 
C 2579 1884 2330 1188 2189 805 
C 2131 651 2099 568 2099 453 
C 2099 166 2298 -64 2605 -64 
C 3200 -64 3424 875 3424 913 
C 3424 945 3398 971 3360 971 
C 3302 971 3296 952 3264 843 
C 3117 332 2880 64 2624 64 
C 2560 64 2458 64 2458 269 
C 2458 436 2534 640 2560 710 
C 2675 1018 2963 1773 2963 2145 
C 2963 2528 2739 2816 2253 2816 
C 1888 2816 1568 2644 1306 2312 
L 1798 4257 
z
" transform="scale(0.015625)"/>
      <path id="CMR17-2b" d="M 2413 1472 
L 4109 1472 
C 4198 1472 4307 1472 4307 1580 
C 4307 1695 4205 1695 4109 1695 
L 2413 1695 
L 2413 3386 
C 2413 3475 2413 3584 2304 3584 
C 2189 3584 2189 3482 2189 3386 
L 2189 1695 
L 493 1695 
C 403 1695 294 1695 294 1587 
C 294 1472 397 1472 493 1472 
L 2189 1472 
L 2189 -218 
C 2189 -307 2189 -416 2298 -416 
C 2413 -416 2413 -314 2413 -218 
L 2413 1472 
z
" transform="scale(0.015625)"/>
      <path id="CMR17-32" d="M 2669 989 
L 2554 989 
C 2490 536 2438 459 2413 420 
C 2381 369 1920 369 1830 369 
L 602 369 
C 832 619 1280 1072 1824 1597 
C 2214 1967 2669 2402 2669 3035 
C 2669 3790 2067 4224 1395 4224 
C 691 4224 262 3604 262 3030 
C 262 2780 448 2748 525 2748 
C 589 2748 781 2787 781 3010 
C 781 3207 614 3264 525 3264 
C 486 3264 448 3258 422 3245 
C 544 3790 915 4058 1306 4058 
C 1862 4058 2227 3617 2227 3035 
C 2227 2479 1901 2000 1536 1584 
L 262 146 
L 262 0 
L 2515 0 
L 2669 989 
z
" transform="scale(0.015625)"/>
      <path id="CMMI12-3b" d="M 1248 -31 
C 1248 343 1126 619 864 619 
C 659 619 557 453 557 313 
C 557 172 653 0 870 0 
C 954 0 1024 26 1082 83 
C 1094 96 1101 96 1107 96 
C 1120 96 1120 5 1120 -27 
C 1120 -240 1082 -659 710 -1080 
C 640 -1157 640 -1170 640 -1183 
C 640 -1216 672 -1248 704 -1248 
C 755 -1248 1248 -771 1248 -31 
z
" transform="scale(0.015625)"/>
      <path id="CMMI12-6a" d="M 2240 2028 
C 2266 2131 2266 2219 2266 2245 
C 2266 2613 1990 2816 1702 2816 
C 1056 2816 710 1889 710 1845 
C 710 1813 736 1788 774 1788 
C 826 1788 832 1813 864 1876 
C 1120 2492 1440 2689 1683 2689 
C 1818 2689 1888 2618 1888 2397 
C 1888 2245 1869 2181 1843 2067 
L 1235 -327 
C 1114 -796 813 -1152 461 -1152 
C 435 -1152 301 -1152 179 -1088 
C 333 -1056 454 -936 454 -784 
C 454 -682 378 -580 237 -580 
C 70 -580 -83 -720 -83 -911 
C -83 -1171 198 -1280 461 -1280 
C 902 -1280 1485 -956 1645 -320 
L 2240 2028 
z
M 2502 4013 
C 2502 4173 2368 4224 2291 4224 
C 2118 4224 1971 4058 1971 3917 
C 1971 3822 2048 3707 2189 3707 
C 2336 3707 2502 3847 2502 4013 
z
" transform="scale(0.015625)"/>
      <path id="CMMI12-4a" d="M 3418 3912 
C 3469 4103 3482 4167 3795 4167 
C 3898 4167 3962 4167 3962 4282 
C 3962 4352 3904 4352 3878 4352 
C 3770 4352 3648 4352 3533 4352 
L 3181 4352 
C 2912 4352 2630 4352 2362 4352 
C 2304 4352 2227 4352 2227 4237 
C 2227 4173 2278 4173 2278 4167 
L 2438 4167 
C 2950 4167 2950 4116 2950 4020 
C 2950 4013 2950 3969 2925 3868 
L 2189 960 
C 2022 312 1594 0 1286 0 
C 1069 0 762 100 685 431 
C 710 424 742 418 768 418 
C 979 418 1146 603 1146 788 
C 1146 890 1082 1024 890 1024 
C 774 1024 506 961 506 549 
C 506 151 838 -128 1299 -128 
C 1882 -128 2509 311 2662 915 
L 3418 3912 
z
" transform="scale(0.015625)"/>
     </defs>
     <use xlink:href="#CMMI12-46" transform="scale(0.996264)"/>
     <use xlink:href="#CMR17-28" transform="translate(76.696793 0) scale(0.996264)"/>
     <use xlink:href="#CMMI12-7e" transform="translate(109.43792 0) scale(0.996264)"/>
     <use xlink:href="#CMMI12-1b" transform="translate(111.97756 0) scale(0.996264)"/>
     <use xlink:href="#CMR17-29" transform="translate(170.997614 0) scale(0.996264)"/>
     <use xlink:href="#CMR17-3d" transform="translate(233.95239 0) scale(0.996264)"/>
     <use xlink:href="#CMMI12-4e" transform="translate(374.311298 124.53364) scale(0.697382)"/>
     <use xlink:href="#CMEX10-58" transform="translate(333.341188 94.645628) scale(0.996264)"/>
     <use xlink:href="#CMMI12-69" transform="translate(352.554675 -117.119274) scale(0.697382)"/>
     <use xlink:href="#CMR17-3d" transform="translate(375.849582 -117.119274) scale(0.697382)"/>
     <use xlink:href="#CMR17-31" transform="translate(426.049713 -117.119274) scale(0.697382)"/>
     <use xlink:href="#CMMI12-1b" transform="translate(493.850788 0) scale(0.996264)"/>
     <use xlink:href="#CMMI12-69" transform="translate(549.296249 -14.943915) scale(0.697382)"/>
     <use xlink:href="#CMMI12-68" transform="translate(573.089288 0) scale(0.996264)"/>
     <use xlink:href="#CMMI12-69" transform="translate(629.243912 -14.943915) scale(0.697382)"/>
     <use xlink:href="#CMR17-2b" transform="translate(675.176158 0) scale(0.996264)"/>
     <use xlink:href="#CMR17-31" transform="translate(770.225667 67.398045) scale(0.996264)"/>
     <use xlink:href="#CMR17-32" transform="translate(770.225667 -68.338837) scale(0.996264)"/>
     <use xlink:href="#CMMI12-4e" transform="translate(881.043453 124.53364) scale(0.697382)"/>
     <use xlink:href="#CMEX10-58" transform="translate(840.073343 94.645628) scale(0.996264)"/>
     <use xlink:href="#CMMI12-69" transform="translate(833.716064 -117.119274) scale(0.697382)"/>
     <use xlink:href="#CMMI12-3b" transform="translate(857.010971 -117.119274) scale(0.697382)"/>
     <use xlink:href="#CMMI12-6a" transform="translate(875.978904 -117.119274) scale(0.697382)"/>
     <use xlink:href="#CMR17-3d" transform="translate(908.152488 -117.119274) scale(0.697382)"/>
     <use xlink:href="#CMR17-31" transform="translate(958.352619 -117.119274) scale(0.697382)"/>
     <use xlink:href="#CMMI12-1b" transform="translate(1006.940207 0) scale(0.996264)"/>
     <use xlink:href="#CMMI12-69" transform="translate(1062.385667 -14.943915) scale(0.697382)"/>
     <use xlink:href="#CMMI12-4a" transform="translate(1086.178707 0) scale(0.996264)"/>
     <use xlink:href="#CMMI12-69" transform="translate(1140.096662 -14.943915) scale(0.697382)"/>
     <use xlink:href="#CMMI12-6a" transform="translate(1163.391569 -14.943915) scale(0.697382)"/>
     <use xlink:href="#CMMI12-1b" transform="translate(1196.063286 0) scale(0.996264)"/>
     <use xlink:href="#CMMI12-6a" transform="translate(1251.508746 -14.943915) scale(0.697382)"/>
     <path d="M 770.225667 22.914133 
L 815.916145 22.914133 
L 815.916145 26.899083 
L 770.225667 26.899083 
L 770.225667 22.914133 
z
"/>
    </g>
   </g>
   <g id="text_2">
    <!-- $\sigma_i \in \{\pm 1\}$ -->
    <g transform="translate(135.014277 165.670668) scale(0.26 -0.26)">
     <defs>
      <path id="CMSY10-32" d="M 3506 1472 
C 3615 1472 3730 1472 3730 1600 
C 3730 1728 3615 1728 3506 1728 
L 792 1728 
C 869 2586 1605 3200 2507 3200 
L 3506 3200 
C 3615 3200 3730 3200 3730 3328 
C 3730 3456 3615 3456 3506 3456 
L 2495 3456 
C 1400 3456 530 2624 530 1600 
C 530 576 1400 -256 2495 -256 
L 3506 -256 
C 3615 -256 3730 -256 3730 -128 
C 3730 0 3615 0 3506 0 
L 2507 0 
C 1605 0 869 614 792 1472 
L 3506 1472 
z
" transform="scale(0.015625)"/>
      <path id="CMSY10-66" d="M 1811 3962 
C 1811 4221 1978 4634 2675 4634 
C 2707 4642 2733 4672 2733 4718 
C 2733 4800 2682 4800 2611 4800 
C 1971 4800 1389 4471 1382 3993 
L 1382 2522 
C 1382 2270 1382 2063 1126 1851 
C 902 1664 659 1664 518 1664 
C 486 1657 461 1626 461 1580 
C 461 1504 499 1504 563 1504 
C 986 1504 1293 1274 1363 960 
C 1382 890 1382 877 1382 646 
L 1382 -621 
C 1382 -890 1382 -1094 1690 -1338 
C 1939 -1530 2362 -1600 2611 -1600 
C 2682 -1600 2733 -1600 2733 -1530 
C 2733 -1453 2694 -1453 2630 -1453 
C 2227 -1453 1914 -1248 1830 -920 
C 1811 -863 1811 -850 1811 -619 
L 1811 727 
C 1811 1023 1760 1132 1555 1337 
C 1421 1472 1235 1536 1056 1587 
C 1581 1736 1811 2034 1811 2409 
L 1811 3962 
z
" transform="scale(0.015625)"/>
      <path id="CMSY10-6" d="M 2618 1984 
L 4397 1984 
C 4506 1984 4621 1984 4621 2112 
C 4621 2240 4506 2240 4397 2240 
L 2618 2240 
L 2618 4018 
C 2618 4121 2618 4256 2490 4256 
C 2362 4256 2362 4140 2362 4038 
L 2362 2240 
L 576 2240 
C 467 2240 352 2240 352 2112 
C 352 1984 467 1984 576 1984 
L 2362 1984 
L 2362 256 
L 576 256 
C 467 256 352 256 352 128 
C 352 0 467 0 576 0 
L 4397 0 
C 4506 0 4621 0 4621 128 
C 4621 256 4506 256 4397 256 
L 2618 256 
L 2618 1984 
z
" transform="scale(0.015625)"/>
      <path id="CMSY10-67" d="M 1382 -772 
C 1382 -1029 1216 -1440 518 -1440 
C 486 -1448 461 -1476 461 -1521 
C 461 -1600 531 -1600 589 -1600 
C 1210 -1600 1805 -1287 1811 -802 
L 1811 655 
C 1811 904 1811 1109 2067 1319 
C 2291 1504 2534 1504 2675 1504 
C 2707 1511 2733 1542 2733 1588 
C 2733 1664 2694 1664 2630 1664 
C 2208 1664 1901 1896 1830 2214 
C 1811 2284 1811 2297 1811 2531 
L 1811 3811 
C 1811 4083 1811 4289 1504 4535 
C 1248 4735 806 4800 589 4800 
C 531 4800 461 4800 461 4720 
C 461 4646 499 4646 563 4646 
C 966 4646 1280 4439 1363 4110 
C 1382 4052 1382 4039 1382 3807 
L 1382 2452 
C 1382 2155 1434 2045 1638 1839 
C 1773 1703 1958 1638 2138 1587 
C 1613 1439 1382 1143 1382 771 
L 1382 -772 
z
" transform="scale(0.015625)"/>
     </defs>
     <use xlink:href="#CMMI12-1b" transform="scale(0.996264)"/>
     <use xlink:href="#CMMI12-69" transform="translate(55.445461 -14.943915) scale(0.697382)"/>
     <use xlink:href="#CMSY10-32" transform="translate(106.912509 0) scale(0.996264)"/>
     <use xlink:href="#CMSY10-66" transform="translate(201.004336 0) scale(0.996264)"/>
     <use xlink:href="#CMSY10-6" transform="translate(250.817719 0) scale(0.996264)"/>
     <use xlink:href="#CMR17-31" transform="translate(328.305187 0) scale(0.996264)"/>
     <use xlink:href="#CMSY10-67" transform="translate(373.995664 0) scale(0.996264)"/>
    </g>
   </g>
   <g id="patch_13">
    <path d="M 52.595145 231.401309 
Q 52.595145 242.708996 52.595145 252.451436 
" style="fill: none; stroke: #000000; stroke-width: 1.4; stroke-linecap: round"/>
    <path d="M 54.595145 248.451436 
L 52.595145 252.451436 
L 50.595145 248.451436 
" style="fill: none; stroke: #000000; stroke-width: 1.4; stroke-linecap: round"/>
   </g>
   <g id="patch_14">
    <path d="M 82.858574 254.016931 
Q 82.858574 242.709244 82.858574 232.966804 
" style="fill: none; stroke: #000000; stroke-width: 1.4; stroke-linecap: round"/>
    <path d="M 80.858574 236.966804 
L 82.858574 232.966804 
L 84.858574 236.966804 
" style="fill: none; stroke: #000000; stroke-width: 1.4; stroke-linecap: round"/>
   </g>
   <g id="patch_15">
    <path d="M 113.122004 254.016931 
Q 113.122004 242.709244 113.122004 232.966804 
" style="fill: none; stroke: #000000; stroke-width: 1.4; stroke-linecap: round"/>
    <path d="M 111.122004 236.966804 
L 113.122004 232.966804 
L 115.122004 236.966804 
" style="fill: none; stroke: #000000; stroke-width: 1.4; stroke-linecap: round"/>
   </g>
   <g id="patch_16">
    <path d="M 143.385434 231.401309 
Q 143.385434 242.708996 143.385434 252.451436 
" style="fill: none; stroke: #000000; stroke-width: 1.4; stroke-linecap: round"/>
    <path d="M 145.385434 248.451436 
L 143.385434 252.451436 
L 141.385434 248.451436 
" style="fill: none; stroke: #000000; stroke-width: 1.4; stroke-linecap: round"/>
   </g>
   <g id="patch_17">
    <path d="M 173.648864 231.401309 
Q 173.648864 242.708996 173.648864 252.451436 
" style="fill: none; stroke: #000000; stroke-width: 1.4; stroke-linecap: round"/>
    <path d="M 175.648864 248.451436 
L 173.648864 252.451436 
L 171.648864 248.451436 
" style="fill: none; stroke: #000000; stroke-width: 1.4; stroke-linecap: round"/>
   </g>
   <g id="patch_18">
    <path d="M 203.912293 254.016931 
Q 203.912293 242.709244 203.912293 232.966804 
" style="fill: none; stroke: #000000; stroke-width: 1.4; stroke-linecap: round"/>
    <path d="M 201.912293 236.966804 
L 203.912293 232.966804 
L 205.912293 236.966804 
" style="fill: none; stroke: #000000; stroke-width: 1.4; stroke-linecap: round"/>
   </g>
   <g id="patch_19">
    <path d="M 234.175723 231.401309 
Q 234.175723 242.708996 234.175723 252.451436 
" style="fill: none; stroke: #000000; stroke-width: 1.4; stroke-linecap: round"/>
    <path d="M 236.175723 248.451436 
L 234.175723 252.451436 
L 232.175723 248.451436 
" style="fill: none; stroke: #000000; stroke-width: 1.4; stroke-linecap: round"/>
   </g>
   <g id="patch_20">
    <path d="M 264.439153 231.401309 
Q 264.439153 242.708996 264.439153 252.451436 
" style="fill: none; stroke: #000000; stroke-width: 1.4; stroke-linecap: round"/>
    <path d="M 266.439153 248.451436 
L 264.439153 252.451436 
L 262.439153 248.451436 
" style="fill: none; stroke: #000000; stroke-width: 1.4; stroke-linecap: round"/>
   </g>
   <g id="patch_21">
    <path d="M 294.702583 254.016931 
Q 294.702583 242.709244 294.702583 232.966804 
" style="fill: none; stroke: #000000; stroke-width: 1.4; stroke-linecap: round"/>
    <path d="M 292.702583 236.966804 
L 294.702583 232.966804 
L 296.702583 236.966804 
" style="fill: none; stroke: #000000; stroke-width: 1.4; stroke-linecap: round"/>
   </g>
   <g id="patch_22">
    <path d="M 324.966012 231.401309 
Q 324.966012 242.708996 324.966012 252.451436 
" style="fill: none; stroke: #000000; stroke-width: 1.4; stroke-linecap: round"/>
    <path d="M 326.966012 248.451436 
L 324.966012 252.451436 
L 322.966012 248.451436 
" style="fill: none; stroke: #000000; stroke-width: 1.4; stroke-linecap: round"/>
   </g>
   <g id="patch_23">
    <path d="M 355.229442 231.401309 
Q 355.229442 242.708996 355.229442 252.451436 
" style="fill: none; stroke: #000000; stroke-width: 1.4; stroke-linecap: round"/>
    <path d="M 357.229442 248.451436 
L 355.229442 252.451436 
L 353.229442 248.451436 
" style="fill: none; stroke: #000000; stroke-width: 1.4; stroke-linecap: round"/>
   </g>
   <g id="text_3">
    <!-- $\textbf{A}$ -->
    <g transform="translate(7.2 21.036997) scale(0.2 -0.2)">
     <defs>
      <path id="CMSSBX10-41" d="M 3034 4202 
C 2938 4480 2752 4480 2624 4480 
L 2061 4480 
C 1933 4480 1747 4480 1651 4202 
L 301 303 
C 269 220 269 207 269 175 
C 269 0 429 0 518 0 
L 749 0 
C 864 0 1062 0 1152 254 
L 1402 960 
L 3174 960 
L 3392 350 
C 3469 127 3514 0 3821 0 
L 4166 0 
C 4256 0 4416 0 4416 172 
C 4416 204 4416 217 4384 301 
L 3034 4202 
z
M 2054 2891 
C 2150 3176 2234 3422 2285 3656 
L 2291 3656 
C 2323 3501 2323 3488 2374 3338 
L 2982 1516 
L 1594 1516 
L 2054 2891 
z
" transform="scale(0.015625)"/>
     </defs>
     <use xlink:href="#CMSSBX10-41" transform="scale(0.996264)"/>
    </g>
   </g>
  </g>
  <g id="axes_2">
   <g id="LineCollection_1">
    <path d="M 724.085604 186.911205 
L 663.550108 148.755128 
" clip-path="url(#pda72ef0b99)" style="fill: none; stroke: #ff4126; stroke-opacity: 0.459319; stroke-width: 2.7"/>
   </g>
   <g id="LineCollection_2">
    <path d="M 724.085604 186.911205 
L 718.654854 166.476733 
" clip-path="url(#pda72ef0b99)" style="fill: none; stroke: #ff4126; stroke-opacity: 0.054091; stroke-width: 2.7"/>
   </g>
   <g id="LineCollection_3">
    <path d="M 616.271395 251.78029 
L 629.545509 202.811092 
" clip-path="url(#pda72ef0b99)" style="fill: none; stroke: #ff4126; stroke-opacity: 0.220183; stroke-width: 2.7"/>
   </g>
   <g id="LineCollection_4">
    <path d="M 523.396224 46.907076 
L 498.902915 71.597622 
" clip-path="url(#pda72ef0b99)" style="fill: none; stroke: #ff4126; stroke-opacity: 0.160323; stroke-width: 2.7"/>
   </g>
   <g id="LineCollection_5">
    <path d="M 523.396224 46.907076 
L 525.122694 86.258196 
" clip-path="url(#pda72ef0b99)" style="fill: none; stroke: #ff4126; stroke-opacity: 0.465248; stroke-width: 2.7"/>
   </g>
   <g id="LineCollection_6">
    <path d="M 466.304919 97.682785 
L 498.902915 71.597622 
" clip-path="url(#pda72ef0b99)" style="fill: none; stroke: #ff4126; stroke-opacity: 0.777738; stroke-width: 2.7"/>
   </g>
   <g id="LineCollection_7">
    <path d="M 534.507179 171.952328 
L 591.594319 213.327823 
" clip-path="url(#pda72ef0b99)" style="fill: none; stroke: #ff4126; stroke-opacity: 0.239828; stroke-width: 2.7"/>
   </g>
   <g id="LineCollection_8">
    <path d="M 546.039003 179.593051 
L 607.949306 219.400114 
" clip-path="url(#pda72ef0b99)" style="fill: none; stroke: #ff4126; stroke-opacity: 0.013818; stroke-width: 2.7"/>
   </g>
   <g id="LineCollection_9">
    <path d="M 546.039003 179.593051 
L 490.376337 163.234997 
" clip-path="url(#pda72ef0b99)" style="fill: none; stroke: #ff4126; stroke-opacity: 0.101806; stroke-width: 2.7"/>
   </g>
   <g id="LineCollection_10">
    <path d="M 457.005952 297.542775 
L 428.096604 264.467271 
" clip-path="url(#pda72ef0b99)" style="fill: none; stroke: #ff4126; stroke-opacity: 0.565267; stroke-width: 2.7"/>
   </g>
   <g id="LineCollection_11">
    <path d="M 436.780919 223.654425 
L 428.096604 264.467271 
" clip-path="url(#pda72ef0b99)" style="fill: none; stroke: #ff4126; stroke-opacity: 0.470391; stroke-width: 2.7"/>
   </g>
   <g id="LineCollection_12">
    <path d="M 436.780919 223.654425 
L 482.064688 265.951429 
" clip-path="url(#pda72ef0b99)" style="fill: none; stroke: #ff4126; stroke-opacity: 0.05952; stroke-width: 2.7"/>
   </g>
   <g id="LineCollection_13">
    <path d="M 482.064688 265.951429 
L 526.94462 322.96973 
" clip-path="url(#pda72ef0b99)" style="fill: none; stroke: #ff4126; stroke-opacity: 0.240343; stroke-width: 2.7"/>
   </g>
   <g id="LineCollection_14">
    <path d="M 596.355836 173.765976 
L 558.950892 221.775365 
" clip-path="url(#pda72ef0b99)" style="fill: none; stroke: #ff4126; stroke-opacity: 0.703448; stroke-width: 2.7"/>
   </g>
   <g id="LineCollection_15">
    <path d="M 721.233353 225.12875 
L 665.129644 219.116272 
" clip-path="url(#pda72ef0b99)" style="fill: none; stroke: #ff4126; stroke-opacity: 0.232779; stroke-width: 2.7"/>
   </g>
   <g id="LineCollection_16">
    <path d="M 721.233353 225.12875 
L 696.047493 178.478317 
" clip-path="url(#pda72ef0b99)" style="fill: none; stroke: #ff4126; stroke-opacity: 0.513375; stroke-width: 2.7"/>
   </g>
   <g id="LineCollection_17">
    <path d="M 645.57767 268.855789 
L 648.006253 313.996073 
" clip-path="url(#pda72ef0b99)" style="fill: none; stroke: #ff4126; stroke-opacity: 0.128246; stroke-width: 2.7"/>
   </g>
   <g id="LineCollection_18">
    <path d="M 645.57767 268.855789 
L 680.745072 282.467876 
" clip-path="url(#pda72ef0b99)" style="fill: none; stroke: #ff4126; stroke-opacity: 0.071606; stroke-width: 2.7"/>
   </g>
   <g id="LineCollection_19">
    <path d="M 645.57767 268.855789 
L 607.949306 219.400114 
" clip-path="url(#pda72ef0b99)" style="fill: none; stroke: #ff4126; stroke-opacity: 0.328366; stroke-width: 2.7"/>
   </g>
   <g id="LineCollection_20">
    <path d="M 648.60544 332.708296 
L 680.745072 282.467876 
" clip-path="url(#pda72ef0b99)" style="fill: none; stroke: #ff4126; stroke-opacity: 0.164665; stroke-width: 2.7"/>
   </g>
   <g id="LineCollection_21">
    <path d="M 648.60544 332.708296 
L 648.006253 313.996073 
" clip-path="url(#pda72ef0b99)" style="fill: none; stroke: #ff4126; stroke-opacity: 0.178338; stroke-width: 2.7"/>
   </g>
   <g id="LineCollection_22">
    <path d="M 586.690504 93.579389 
L 639.885233 134.33462 
" clip-path="url(#pda72ef0b99)" style="fill: none; stroke: #ff4126; stroke-opacity: 0.330557; stroke-width: 2.7"/>
   </g>
   <g id="LineCollection_23">
    <path d="M 620.313103 148.731938 
L 683.533345 166.415679 
" clip-path="url(#pda72ef0b99)" style="fill: none; stroke: #ff4126; stroke-opacity: 0.248144; stroke-width: 2.7"/>
   </g>
   <g id="LineCollection_24">
    <path d="M 683.533345 166.415679 
L 718.654854 166.476733 
" clip-path="url(#pda72ef0b99)" style="fill: none; stroke: #ff4126; stroke-opacity: 0.219186; stroke-width: 2.7"/>
   </g>
   <g id="LineCollection_25">
    <path d="M 594.667055 346.179054 
L 640.905058 344.353639 
" clip-path="url(#pda72ef0b99)" style="fill: none; stroke: #ff4126; stroke-opacity: 0.383276; stroke-width: 2.7"/>
   </g>
   <g id="LineCollection_26">
    <path d="M 661.753747 266.743977 
L 646.466715 208.976308 
" clip-path="url(#pda72ef0b99)" style="fill: none; stroke: #ff4126; stroke-opacity: 0.017282; stroke-width: 2.7"/>
   </g>
   <g id="LineCollection_27">
    <path d="M 661.753747 266.743977 
L 690.990599 315.350448 
" clip-path="url(#pda72ef0b99)" style="fill: none; stroke: #ff4126; stroke-opacity: 0.044453; stroke-width: 2.7"/>
   </g>
   <g id="LineCollection_28">
    <path d="M 490.376337 163.234997 
L 480.595607 117.00307 
" clip-path="url(#pda72ef0b99)" style="fill: none; stroke: #ff4126; stroke-opacity: 0.337282; stroke-width: 2.7"/>
   </g>
   <g id="LineCollection_29">
    <path d="M 490.376337 163.234997 
L 477.024127 206.008373 
" clip-path="url(#pda72ef0b99)" style="fill: none; stroke: #ff4126; stroke-opacity: 0.126262; stroke-width: 2.7"/>
   </g>
   <g id="LineCollection_30">
    <path d="M 741.758411 292.43482 
L 690.990599 315.350448 
" clip-path="url(#pda72ef0b99)" style="fill: none; stroke: #ff4126; stroke-opacity: 0.78896; stroke-width: 2.7"/>
   </g>
   <g id="LineCollection_31">
    <path d="M 646.466715 208.976308 
L 633.335072 145.231319 
" clip-path="url(#pda72ef0b99)" style="fill: none; stroke: #ff4126; stroke-opacity: 0.223689; stroke-width: 2.7"/>
   </g>
   <g id="LineCollection_32">
    <path d="M 633.335072 145.231319 
L 592.766487 130.881022 
" clip-path="url(#pda72ef0b99)" style="fill: none; stroke: #ff4126; stroke-opacity: 0.291877; stroke-width: 2.7"/>
   </g>
   <g id="LineCollection_33">
    <path d="M 682.502877 192.970517 
L 665.129644 219.116272 
" clip-path="url(#pda72ef0b99)" style="fill: none; stroke: #ff4126; stroke-opacity: 0.144955; stroke-width: 2.7"/>
   </g>
   <g id="LineCollection_34">
    <path d="M 522.632684 273.045849 
L 492.656698 315.187837 
" clip-path="url(#pda72ef0b99)" style="fill: none; stroke: #ff4126; stroke-opacity: 0.40089; stroke-width: 2.7"/>
   </g>
   <g id="LineCollection_35">
    <path d="M 444.463135 155.088337 
L 488.083731 145.605263 
" clip-path="url(#pda72ef0b99)" style="fill: none; stroke: #ff4126; stroke-opacity: 0.320014; stroke-width: 2.7"/>
   </g>
   <g id="LineCollection_36">
    <path d="M 550.414052 173.485906 
L 488.083731 145.605263 
" clip-path="url(#pda72ef0b99)" style="fill: none; stroke: #ff4126; stroke-opacity: 0.353533; stroke-width: 2.7"/>
   </g>
   <g id="LineCollection_37">
    <path d="M 511.230652 155.459321 
L 485.25102 189.458109 
" clip-path="url(#pda72ef0b99)" style="fill: none; stroke: #ff4126; stroke-opacity: 0.338673; stroke-width: 2.7"/>
   </g>
   <g id="LineCollection_38">
    <path d="M 511.230652 155.459321 
L 525.122694 86.258196 
" clip-path="url(#pda72ef0b99)" style="fill: none; stroke: #ff4126; stroke-opacity: 0.503112; stroke-width: 2.7"/>
   </g>
   <g id="LineCollection_39">
    <path d="M 648.006253 313.996073 
L 618.800367 305.51497 
" clip-path="url(#pda72ef0b99)" style="fill: none; stroke: #ff4126; stroke-opacity: 0.303679; stroke-width: 2.7"/>
   </g>
   <g id="LineCollection_40">
    <path d="M 591.327242 243.601366 
L 619.292205 177.405704 
" clip-path="url(#pda72ef0b99)" style="fill: none; stroke: #ff4126; stroke-opacity: 0.06436; stroke-width: 2.7"/>
   </g>
   <g id="LineCollection_41">
    <path d="M 696.047493 178.478317 
L 700.134823 219.813425 
" clip-path="url(#pda72ef0b99)" style="fill: none; stroke: #ff4126; stroke-opacity: 0.502641; stroke-width: 2.7"/>
   </g>
   <g id="LineCollection_42">
    <path d="M 453.992385 234.206492 
L 428.096604 264.467271 
" clip-path="url(#pda72ef0b99)" style="fill: none; stroke: #ff4126; stroke-opacity: 0.692909; stroke-width: 2.7"/>
   </g>
   <g id="LineCollection_43">
    <path d="M 629.545509 202.811092 
L 577.4333 171.610319 
" clip-path="url(#pda72ef0b99)" style="fill: none; stroke: #ff4126; stroke-opacity: 0.41548; stroke-width: 2.7"/>
   </g>
   <g id="LineCollection_44">
    <path d="M 604.420447 114.152382 
L 663.550108 148.755128 
" clip-path="url(#pda72ef0b99)" style="fill: none; stroke: #ff4126; stroke-opacity: 0.893953; stroke-width: 2.7"/>
   </g>
   <g id="LineCollection_45">
    <path d="M 640.905058 344.353639 
L 690.990599 315.350448 
" clip-path="url(#pda72ef0b99)" style="fill: none; stroke: #ff4126; stroke-opacity: 0.630807; stroke-width: 2.7"/>
   </g>
   <g id="LineCollection_46">
    <path d="M 663.550108 148.755128 
L 619.292205 177.405704 
" clip-path="url(#pda72ef0b99)" style="fill: none; stroke: #ff4126; stroke-opacity: 0.087348; stroke-width: 2.7"/>
   </g>
   <g id="LineCollection_47">
    <path d="M 619.292205 177.405704 
L 592.766487 130.881022 
" clip-path="url(#pda72ef0b99)" style="fill: none; stroke: #ff4126; stroke-opacity: 0.624061; stroke-width: 2.7"/>
   </g>
   <g id="LineCollection_48">
    <path d="M 724.085604 186.911205 
L 749.846338 245.785438 
" clip-path="url(#pda72ef0b99)" style="fill: none; stroke: #3d26a6; stroke-opacity: 0.400674; stroke-width: 2.7"/>
   </g>
   <g id="LineCollection_49">
    <path d="M 616.271395 251.78029 
L 661.753747 266.743977 
" clip-path="url(#pda72ef0b99)" style="fill: none; stroke: #3d26a6; stroke-opacity: 0.62598; stroke-width: 2.7"/>
   </g>
   <g id="LineCollection_50">
    <path d="M 616.271395 251.78029 
L 559.810564 249.346866 
" clip-path="url(#pda72ef0b99)" style="fill: none; stroke: #3d26a6; stroke-opacity: 0.147025; stroke-width: 2.7"/>
   </g>
   <g id="LineCollection_51">
    <path d="M 523.396224 46.907076 
L 559.731319 66.580167 
" clip-path="url(#pda72ef0b99)" style="fill: none; stroke: #3d26a6; stroke-opacity: 0.418557; stroke-width: 2.7"/>
   </g>
   <g id="LineCollection_52">
    <path d="M 466.304919 97.682785 
L 514.187013 89.055829 
" clip-path="url(#pda72ef0b99)" style="fill: none; stroke: #3d26a6; stroke-opacity: 0.424712; stroke-width: 2.7"/>
   </g>
   <g id="LineCollection_53">
    <path d="M 466.304919 97.682785 
L 444.463135 155.088337 
" clip-path="url(#pda72ef0b99)" style="fill: none; stroke: #3d26a6; stroke-opacity: 0.554204; stroke-width: 2.7"/>
   </g>
   <g id="LineCollection_54">
    <path d="M 534.507179 171.952328 
L 538.72563 113.299911 
" clip-path="url(#pda72ef0b99)" style="fill: none; stroke: #3d26a6; stroke-opacity: 0.236318; stroke-width: 2.7"/>
   </g>
   <g id="LineCollection_55">
    <path d="M 534.507179 171.952328 
L 485.25102 189.458109 
" clip-path="url(#pda72ef0b99)" style="fill: none; stroke: #3d26a6; stroke-opacity: 0.251958; stroke-width: 2.7"/>
   </g>
   <g id="LineCollection_56">
    <path d="M 546.039003 179.593051 
L 568.131716 188.066534 
" clip-path="url(#pda72ef0b99)" style="fill: none; stroke: #3d26a6; stroke-opacity: 0.022076; stroke-width: 2.7"/>
   </g>
   <g id="LineCollection_57">
    <path d="M 457.005952 297.542775 
L 495.38804 267.339984 
" clip-path="url(#pda72ef0b99)" style="fill: none; stroke: #3d26a6; stroke-opacity: 0.517741; stroke-width: 2.7"/>
   </g>
   <g id="LineCollection_58">
    <path d="M 457.005952 297.542775 
L 492.656698 315.187837 
" clip-path="url(#pda72ef0b99)" style="fill: none; stroke: #3d26a6; stroke-opacity: 0.218719; stroke-width: 2.7"/>
   </g>
   <g id="LineCollection_59">
    <path d="M 436.780919 223.654425 
L 444.463135 155.088337 
" clip-path="url(#pda72ef0b99)" style="fill: none; stroke: #3d26a6; stroke-opacity: 0.08248; stroke-width: 2.7"/>
   </g>
   <g id="LineCollection_60">
    <path d="M 482.064688 265.951429 
L 513.616067 212.03859 
" clip-path="url(#pda72ef0b99)" style="fill: none; stroke: #3d26a6; stroke-width: 2.7"/>
   </g>
   <g id="LineCollection_61">
    <path d="M 596.355836 173.765976 
L 639.885233 134.33462 
" clip-path="url(#pda72ef0b99)" style="fill: none; stroke: #3d26a6; stroke-opacity: 0.427968; stroke-width: 2.7"/>
   </g>
   <g id="LineCollection_62">
    <path d="M 596.355836 173.765976 
L 568.131716 188.066534 
" clip-path="url(#pda72ef0b99)" style="fill: none; stroke: #3d26a6; stroke-opacity: 0.395688; stroke-width: 2.7"/>
   </g>
   <g id="LineCollection_63">
    <path d="M 721.233353 225.12875 
L 757.724315 263.259027 
" clip-path="url(#pda72ef0b99)" style="fill: none; stroke: #3d26a6; stroke-opacity: 0.517814; stroke-width: 2.7"/>
   </g>
   <g id="LineCollection_64">
    <path d="M 568.131716 188.066534 
L 558.950892 221.775365 
" clip-path="url(#pda72ef0b99)" style="fill: none; stroke: #3d26a6; stroke-opacity: 0.231803; stroke-width: 2.7"/>
   </g>
   <g id="LineCollection_65">
    <path d="M 559.810564 249.346866 
L 494.442592 240.754437 
" clip-path="url(#pda72ef0b99)" style="fill: none; stroke: #3d26a6; stroke-opacity: 0.167737; stroke-width: 2.7"/>
   </g>
   <g id="LineCollection_66">
    <path d="M 559.810564 249.346866 
L 591.594319 213.327823 
" clip-path="url(#pda72ef0b99)" style="fill: none; stroke: #3d26a6; stroke-opacity: 0.262077; stroke-width: 2.7"/>
   </g>
   <g id="LineCollection_67">
    <path d="M 648.60544 332.708296 
L 594.667055 346.179054 
" clip-path="url(#pda72ef0b99)" style="fill: none; stroke: #3d26a6; stroke-opacity: 0.119588; stroke-width: 2.7"/>
   </g>
   <g id="LineCollection_68">
    <path d="M 558.950892 221.775365 
L 522.632684 273.045849 
" clip-path="url(#pda72ef0b99)" style="fill: none; stroke: #3d26a6; stroke-opacity: 0.151316; stroke-width: 2.7"/>
   </g>
   <g id="LineCollection_69">
    <path d="M 586.690504 93.579389 
L 624.819455 104.281412 
" clip-path="url(#pda72ef0b99)" style="fill: none; stroke: #3d26a6; stroke-opacity: 0.249339; stroke-width: 2.7"/>
   </g>
   <g id="LineCollection_70">
    <path d="M 586.690504 93.579389 
L 514.187013 89.055829 
" clip-path="url(#pda72ef0b99)" style="fill: none; stroke: #3d26a6; stroke-opacity: 0.350086; stroke-width: 2.7"/>
   </g>
   <g id="LineCollection_71">
    <path d="M 620.313103 148.731938 
L 624.819455 104.281412 
" clip-path="url(#pda72ef0b99)" style="fill: none; stroke: #3d26a6; stroke-opacity: 0.259889; stroke-width: 2.7"/>
   </g>
   <g id="LineCollection_72">
    <path d="M 620.313103 148.731938 
L 550.414052 173.485906 
" clip-path="url(#pda72ef0b99)" style="fill: none; stroke: #3d26a6; stroke-opacity: 0.348027; stroke-width: 2.7"/>
   </g>
   <g id="LineCollection_73">
    <path d="M 683.533345 166.415679 
L 700.134823 219.813425 
" clip-path="url(#pda72ef0b99)" style="fill: none; stroke: #3d26a6; stroke-opacity: 0.134946; stroke-width: 2.7"/>
   </g>
   <g id="LineCollection_74">
    <path d="M 594.667055 346.179054 
L 526.94462 322.96973 
" clip-path="url(#pda72ef0b99)" style="fill: none; stroke: #3d26a6; stroke-opacity: 0.729537; stroke-width: 2.7"/>
   </g>
   <g id="LineCollection_75">
    <path d="M 607.949306 219.400114 
L 646.466715 208.976308 
" clip-path="url(#pda72ef0b99)" style="fill: none; stroke: #3d26a6; stroke-opacity: 0.203381; stroke-width: 2.7"/>
   </g>
   <g id="LineCollection_76">
    <path d="M 741.758411 292.43482 
L 757.724315 263.259027 
" clip-path="url(#pda72ef0b99)" style="fill: none; stroke: #3d26a6; stroke-opacity: 0.166972; stroke-width: 2.7"/>
   </g>
   <g id="LineCollection_77">
    <path d="M 741.758411 292.43482 
L 749.846338 245.785438 
" clip-path="url(#pda72ef0b99)" style="fill: none; stroke: #3d26a6; stroke-opacity: 0.530293; stroke-width: 2.7"/>
   </g>
   <g id="LineCollection_78">
    <path d="M 633.335072 145.231319 
L 624.819455 104.281412 
" clip-path="url(#pda72ef0b99)" style="fill: none; stroke: #3d26a6; stroke-opacity: 0.022706; stroke-width: 2.7"/>
   </g>
   <g id="LineCollection_79">
    <path d="M 682.502877 192.970517 
L 629.545509 202.811092 
" clip-path="url(#pda72ef0b99)" style="fill: none; stroke: #3d26a6; stroke-opacity: 0.121923; stroke-width: 2.7"/>
   </g>
   <g id="LineCollection_80">
    <path d="M 682.502877 192.970517 
L 718.654854 166.476733 
" clip-path="url(#pda72ef0b99)" style="fill: none; stroke: #3d26a6; stroke-opacity: 0.143908; stroke-width: 2.7"/>
   </g>
   <g id="LineCollection_81">
    <path d="M 559.731319 66.580167 
L 525.122694 86.258196 
" clip-path="url(#pda72ef0b99)" style="fill: none; stroke: #3d26a6; stroke-opacity: 0.031704; stroke-width: 2.7"/>
   </g>
   <g id="LineCollection_82">
    <path d="M 559.731319 66.580167 
L 604.420447 114.152382 
" clip-path="url(#pda72ef0b99)" style="fill: none; stroke: #3d26a6; stroke-opacity: 0.229144; stroke-width: 2.7"/>
   </g>
   <g id="LineCollection_83">
    <path d="M 757.724315 263.259027 
L 749.846338 245.785438 
" clip-path="url(#pda72ef0b99)" style="fill: none; stroke: #3d26a6; stroke-opacity: 0.371035; stroke-width: 2.7"/>
   </g>
   <g id="LineCollection_84">
    <path d="M 519.918808 235.943551 
L 495.38804 267.339984 
" clip-path="url(#pda72ef0b99)" style="fill: none; stroke: #3d26a6; stroke-opacity: 0.47169; stroke-width: 2.7"/>
   </g>
   <g id="LineCollection_85">
    <path d="M 519.918808 235.943551 
L 550.414052 173.485906 
" clip-path="url(#pda72ef0b99)" style="fill: none; stroke: #3d26a6; stroke-opacity: 0.107561; stroke-width: 2.7"/>
   </g>
   <g id="LineCollection_86">
    <path d="M 519.918808 235.943551 
L 522.632684 273.045849 
" clip-path="url(#pda72ef0b99)" style="fill: none; stroke: #3d26a6; stroke-opacity: 0.108632; stroke-width: 2.7"/>
   </g>
   <g id="LineCollection_87">
    <path d="M 665.129644 219.116272 
L 591.594319 213.327823 
" clip-path="url(#pda72ef0b99)" style="fill: none; stroke: #3d26a6; stroke-opacity: 0.288591; stroke-width: 2.7"/>
   </g>
   <g id="LineCollection_88">
    <path d="M 526.94462 322.96973 
L 492.656698 315.187837 
" clip-path="url(#pda72ef0b99)" style="fill: none; stroke: #3d26a6; stroke-opacity: 0.257125; stroke-width: 2.7"/>
   </g>
   <g id="LineCollection_89">
    <path d="M 538.72563 113.299911 
L 592.766487 130.881022 
" clip-path="url(#pda72ef0b99)" style="fill: none; stroke: #3d26a6; stroke-opacity: 0.336447; stroke-width: 2.7"/>
   </g>
   <g id="LineCollection_90">
    <path d="M 538.72563 113.299911 
L 498.902915 71.597622 
" clip-path="url(#pda72ef0b99)" style="fill: none; stroke: #3d26a6; stroke-opacity: 0.295183; stroke-width: 2.7"/>
   </g>
   <g id="LineCollection_91">
    <path d="M 513.616067 212.03859 
L 577.4333 171.610319 
" clip-path="url(#pda72ef0b99)" style="fill: none; stroke: #3d26a6; stroke-opacity: 0.11238; stroke-width: 2.7"/>
   </g>
   <g id="LineCollection_92">
    <path d="M 513.616067 212.03859 
L 477.024127 206.008373 
" clip-path="url(#pda72ef0b99)" style="fill: none; stroke: #3d26a6; stroke-opacity: 0.354219; stroke-width: 2.7"/>
   </g>
   <g id="LineCollection_93">
    <path d="M 511.230652 155.459321 
L 530.86037 223.418867 
" clip-path="url(#pda72ef0b99)" style="fill: none; stroke: #3d26a6; stroke-opacity: 0.312355; stroke-width: 2.7"/>
   </g>
   <g id="LineCollection_94">
    <path d="M 480.595607 117.00307 
L 488.083731 145.605263 
" clip-path="url(#pda72ef0b99)" style="fill: none; stroke: #3d26a6; stroke-opacity: 0.14746; stroke-width: 2.7"/>
   </g>
   <g id="LineCollection_95">
    <path d="M 480.595607 117.00307 
L 514.187013 89.055829 
" clip-path="url(#pda72ef0b99)" style="fill: none; stroke: #3d26a6; stroke-opacity: 0.073315; stroke-width: 2.7"/>
   </g>
   <g id="LineCollection_96">
    <path d="M 591.327242 243.601366 
L 618.800367 305.51497 
" clip-path="url(#pda72ef0b99)" style="fill: none; stroke: #3d26a6; stroke-opacity: 0.486412; stroke-width: 2.7"/>
   </g>
   <g id="LineCollection_97">
    <path d="M 591.327242 243.601366 
L 530.86037 223.418867 
" clip-path="url(#pda72ef0b99)" style="fill: none; stroke: #3d26a6; stroke-opacity: 0.107796; stroke-width: 2.7"/>
   </g>
   <g id="LineCollection_98">
    <path d="M 494.442592 240.754437 
L 453.992385 234.206492 
" clip-path="url(#pda72ef0b99)" style="fill: none; stroke: #3d26a6; stroke-opacity: 0.352933; stroke-width: 2.7"/>
   </g>
   <g id="LineCollection_99">
    <path d="M 494.442592 240.754437 
L 477.024127 206.008373 
" clip-path="url(#pda72ef0b99)" style="fill: none; stroke: #3d26a6; stroke-opacity: 0.353532; stroke-width: 2.7"/>
   </g>
   <g id="LineCollection_100">
    <path d="M 696.047493 178.478317 
L 639.885233 134.33462 
" clip-path="url(#pda72ef0b99)" style="fill: none; stroke: #3d26a6; stroke-opacity: 0.669715; stroke-width: 2.7"/>
   </g>
   <g id="LineCollection_101">
    <path d="M 453.992385 234.206492 
L 485.25102 189.458109 
" clip-path="url(#pda72ef0b99)" style="fill: none; stroke: #3d26a6; stroke-opacity: 0.19024; stroke-width: 2.7"/>
   </g>
   <g id="LineCollection_102">
    <path d="M 700.134823 219.813425 
L 680.745072 282.467876 
" clip-path="url(#pda72ef0b99)" style="fill: none; stroke: #3d26a6; stroke-opacity: 0.375359; stroke-width: 2.7"/>
   </g>
   <g id="LineCollection_103">
    <path d="M 604.420447 114.152382 
L 577.4333 171.610319 
" clip-path="url(#pda72ef0b99)" style="fill: none; stroke: #3d26a6; stroke-opacity: 0.017232; stroke-width: 2.7"/>
   </g>
   <g id="LineCollection_104">
    <path d="M 495.38804 267.339984 
L 530.86037 223.418867 
" clip-path="url(#pda72ef0b99)" style="fill: none; stroke: #3d26a6; stroke-opacity: 0.415891; stroke-width: 2.7"/>
   </g>
   <g id="LineCollection_105">
    <path d="M 640.905058 344.353639 
L 618.800367 305.51497 
" clip-path="url(#pda72ef0b99)" style="fill: none; stroke: #3d26a6; stroke-opacity: 0.097378; stroke-width: 2.7"/>
   </g>
   <g id="PathCollection_1">
    <defs>
     <path id="ma7f61fa987" d="M 0 4.330127 
C 1.148363 4.330127 2.249847 3.873878 3.061862 3.061862 
C 3.873878 2.249847 4.330127 1.148363 4.330127 0 
C 4.330127 -1.148363 3.873878 -2.249847 3.061862 -3.061862 
C 2.249847 -3.873878 1.148363 -4.330127 0 -4.330127 
C -1.148363 -4.330127 -2.249847 -3.873878 -3.061862 -3.061862 
C -3.873878 -2.249847 -4.330127 -1.148363 -4.330127 0 
C -4.330127 1.148363 -3.873878 2.249847 -3.061862 3.061862 
C -2.249847 3.873878 -1.148363 4.330127 0 4.330127 
z
" style="stroke: #000000"/>
    </defs>
    <g clip-path="url(#pda72ef0b99)">
     <use xlink:href="#ma7f61fa987" x="724.085604" y="186.911205" style="fill: #ffffff; stroke: #000000"/>
     <use xlink:href="#ma7f61fa987" x="534.507179" y="171.952328" style="fill: #ffffff; stroke: #000000"/>
     <use xlink:href="#ma7f61fa987" x="546.039003" y="179.593051" style="fill: #ffffff; stroke: #000000"/>
     <use xlink:href="#ma7f61fa987" x="596.355836" y="173.765976" style="fill: #ffffff; stroke: #000000"/>
     <use xlink:href="#ma7f61fa987" x="721.233353" y="225.12875" style="fill: #ffffff; stroke: #000000"/>
     <use xlink:href="#ma7f61fa987" x="645.57767" y="268.855789" style="fill: #ffffff; stroke: #000000"/>
     <use xlink:href="#ma7f61fa987" x="568.131716" y="188.066534" style="fill: #ffffff; stroke: #000000"/>
     <use xlink:href="#ma7f61fa987" x="648.60544" y="332.708296" style="fill: #ffffff; stroke: #000000"/>
     <use xlink:href="#ma7f61fa987" x="558.950892" y="221.775365" style="fill: #ffffff; stroke: #000000"/>
     <use xlink:href="#ma7f61fa987" x="586.690504" y="93.579389" style="fill: #ffffff; stroke: #000000"/>
     <use xlink:href="#ma7f61fa987" x="594.667055" y="346.179054" style="fill: #ffffff; stroke: #000000"/>
     <use xlink:href="#ma7f61fa987" x="661.753747" y="266.743977" style="fill: #ffffff; stroke: #000000"/>
     <use xlink:href="#ma7f61fa987" x="607.949306" y="219.400114" style="fill: #ffffff; stroke: #000000"/>
     <use xlink:href="#ma7f61fa987" x="646.466715" y="208.976308" style="fill: #ffffff; stroke: #000000"/>
     <use xlink:href="#ma7f61fa987" x="526.94462" y="322.96973" style="fill: #ffffff; stroke: #000000"/>
     <use xlink:href="#ma7f61fa987" x="538.72563" y="113.299911" style="fill: #ffffff; stroke: #000000"/>
     <use xlink:href="#ma7f61fa987" x="550.414052" y="173.485906" style="fill: #ffffff; stroke: #000000"/>
     <use xlink:href="#ma7f61fa987" x="513.616067" y="212.03859" style="fill: #ffffff; stroke: #000000"/>
     <use xlink:href="#ma7f61fa987" x="480.595607" y="117.00307" style="fill: #ffffff; stroke: #000000"/>
     <use xlink:href="#ma7f61fa987" x="591.327242" y="243.601366" style="fill: #ffffff; stroke: #000000"/>
     <use xlink:href="#ma7f61fa987" x="749.846338" y="245.785438" style="fill: #ffffff; stroke: #000000"/>
     <use xlink:href="#ma7f61fa987" x="494.442592" y="240.754437" style="fill: #ffffff; stroke: #000000"/>
     <use xlink:href="#ma7f61fa987" x="718.654854" y="166.476733" style="fill: #ffffff; stroke: #000000"/>
     <use xlink:href="#ma7f61fa987" x="453.992385" y="234.206492" style="fill: #ffffff; stroke: #000000"/>
     <use xlink:href="#ma7f61fa987" x="629.545509" y="202.811092" style="fill: #ffffff; stroke: #000000"/>
     <use xlink:href="#ma7f61fa987" x="530.86037" y="223.418867" style="fill: #ffffff; stroke: #000000"/>
     <use xlink:href="#ma7f61fa987" x="525.122694" y="86.258196" style="fill: #ffffff; stroke: #000000"/>
     <use xlink:href="#ma7f61fa987" x="488.083731" y="145.605263" style="fill: #ffffff; stroke: #000000"/>
     <use xlink:href="#ma7f61fa987" x="591.594319" y="213.327823" style="fill: #ffffff; stroke: #000000"/>
     <use xlink:href="#ma7f61fa987" x="639.885233" y="134.33462" style="fill: #ffffff; stroke: #000000"/>
     <use xlink:href="#ma7f61fa987" x="592.766487" y="130.881022" style="fill: #ffffff; stroke: #000000"/>
     <use xlink:href="#ma7f61fa987" x="680.745072" y="282.467876" style="fill: #ffffff; stroke: #000000"/>
    </g>
   </g>
   <g id="PathCollection_2">
    <defs>
     <path id="mbc4daddd18" d="M 0 4.330127 
C 1.148363 4.330127 2.249847 3.873878 3.061862 3.061862 
C 3.873878 2.249847 4.330127 1.148363 4.330127 0 
C 4.330127 -1.148363 3.873878 -2.249847 3.061862 -3.061862 
C 2.249847 -3.873878 1.148363 -4.330127 0 -4.330127 
C -1.148363 -4.330127 -2.249847 -3.873878 -3.061862 -3.061862 
C -3.873878 -2.249847 -4.330127 -1.148363 -4.330127 0 
C -4.330127 1.148363 -3.873878 2.249847 -3.061862 3.061862 
C -2.249847 3.873878 -1.148363 4.330127 0 4.330127 
z
" style="stroke: #000000"/>
    </defs>
    <g clip-path="url(#pda72ef0b99)">
     <use xlink:href="#mbc4daddd18" x="616.271395" y="251.78029" style="stroke: #000000"/>
     <use xlink:href="#mbc4daddd18" x="523.396224" y="46.907076" style="stroke: #000000"/>
     <use xlink:href="#mbc4daddd18" x="466.304919" y="97.682785" style="stroke: #000000"/>
     <use xlink:href="#mbc4daddd18" x="457.005952" y="297.542775" style="stroke: #000000"/>
     <use xlink:href="#mbc4daddd18" x="436.780919" y="223.654425" style="stroke: #000000"/>
     <use xlink:href="#mbc4daddd18" x="482.064688" y="265.951429" style="stroke: #000000"/>
     <use xlink:href="#mbc4daddd18" x="559.810564" y="249.346866" style="stroke: #000000"/>
     <use xlink:href="#mbc4daddd18" x="620.313103" y="148.731938" style="stroke: #000000"/>
     <use xlink:href="#mbc4daddd18" x="683.533345" y="166.415679" style="stroke: #000000"/>
     <use xlink:href="#mbc4daddd18" x="490.376337" y="163.234997" style="stroke: #000000"/>
     <use xlink:href="#mbc4daddd18" x="741.758411" y="292.43482" style="stroke: #000000"/>
     <use xlink:href="#mbc4daddd18" x="633.335072" y="145.231319" style="stroke: #000000"/>
     <use xlink:href="#mbc4daddd18" x="682.502877" y="192.970517" style="stroke: #000000"/>
     <use xlink:href="#mbc4daddd18" x="559.731319" y="66.580167" style="stroke: #000000"/>
     <use xlink:href="#mbc4daddd18" x="757.724315" y="263.259027" style="stroke: #000000"/>
     <use xlink:href="#mbc4daddd18" x="519.918808" y="235.943551" style="stroke: #000000"/>
     <use xlink:href="#mbc4daddd18" x="522.632684" y="273.045849" style="stroke: #000000"/>
     <use xlink:href="#mbc4daddd18" x="665.129644" y="219.116272" style="stroke: #000000"/>
     <use xlink:href="#mbc4daddd18" x="444.463135" y="155.088337" style="stroke: #000000"/>
     <use xlink:href="#mbc4daddd18" x="511.230652" y="155.459321" style="stroke: #000000"/>
     <use xlink:href="#mbc4daddd18" x="648.006253" y="313.996073" style="stroke: #000000"/>
     <use xlink:href="#mbc4daddd18" x="696.047493" y="178.478317" style="stroke: #000000"/>
     <use xlink:href="#mbc4daddd18" x="492.656698" y="315.187837" style="stroke: #000000"/>
     <use xlink:href="#mbc4daddd18" x="700.134823" y="219.813425" style="stroke: #000000"/>
     <use xlink:href="#mbc4daddd18" x="428.096604" y="264.467271" style="stroke: #000000"/>
     <use xlink:href="#mbc4daddd18" x="514.187013" y="89.055829" style="stroke: #000000"/>
     <use xlink:href="#mbc4daddd18" x="604.420447" y="114.152382" style="stroke: #000000"/>
     <use xlink:href="#mbc4daddd18" x="495.38804" y="267.339984" style="stroke: #000000"/>
     <use xlink:href="#mbc4daddd18" x="640.905058" y="344.353639" style="stroke: #000000"/>
     <use xlink:href="#mbc4daddd18" x="690.990599" y="315.350448" style="stroke: #000000"/>
     <use xlink:href="#mbc4daddd18" x="577.4333" y="171.610319" style="stroke: #000000"/>
     <use xlink:href="#mbc4daddd18" x="624.819455" y="104.281412" style="stroke: #000000"/>
     <use xlink:href="#mbc4daddd18" x="498.902915" y="71.597622" style="stroke: #000000"/>
     <use xlink:href="#mbc4daddd18" x="663.550108" y="148.755128" style="stroke: #000000"/>
     <use xlink:href="#mbc4daddd18" x="619.292205" y="177.405704" style="stroke: #000000"/>
     <use xlink:href="#mbc4daddd18" x="485.25102" y="189.458109" style="stroke: #000000"/>
     <use xlink:href="#mbc4daddd18" x="618.800367" y="305.51497" style="stroke: #000000"/>
     <use xlink:href="#mbc4daddd18" x="477.024127" y="206.008373" style="stroke: #000000"/>
    </g>
   </g>
   <g id="text_4">
    <!-- B -->
    <g transform="translate(410.00625 23.81952) scale(0.2 -0.2)">
     <defs>
      <path id="DejaVuSans-Bold-42" d="M 2456 2859 
Q 2741 2859 2887 2984 
Q 3034 3109 3034 3353 
Q 3034 3594 2887 3720 
Q 2741 3847 2456 3847 
L 1791 3847 
L 1791 2859 
L 2456 2859 
z
M 2497 819 
Q 2859 819 3042 972 
Q 3225 1125 3225 1434 
Q 3225 1738 3044 1889 
Q 2863 2041 2497 2041 
L 1791 2041 
L 1791 819 
L 2497 819 
z
M 3616 2497 
Q 4003 2384 4215 2081 
Q 4428 1778 4428 1338 
Q 4428 663 3972 331 
Q 3516 0 2584 0 
L 588 0 
L 588 4666 
L 2394 4666 
Q 3366 4666 3802 4372 
Q 4238 4078 4238 3431 
Q 4238 3091 4078 2852 
Q 3919 2613 3616 2497 
z
" transform="scale(0.015625)"/>
     </defs>
     <use xlink:href="#DejaVuSans-Bold-42"/>
    </g>
   </g>
   <g id="legend_1">
    <g id="line2d_1">
     <path d="M 653.79375 50.77702 
L 669.79375 50.77702 
L 685.79375 50.77702 
" style="fill: none; stroke: #ffffff; stroke-width: 1.5; stroke-linecap: square"/>
     <defs>
      <path id="m2744c20bb4" d="M 0 5 
C 1.326016 5 2.597899 4.473168 3.535534 3.535534 
C 4.473168 2.597899 5 1.326016 5 0 
C 5 -1.326016 4.473168 -2.597899 3.535534 -3.535534 
C 2.597899 -4.473168 1.326016 -5 0 -5 
C -1.326016 -5 -2.597899 -4.473168 -3.535534 -3.535534 
C -4.473168 -2.597899 -5 -1.326016 -5 0 
C -5 1.326016 -4.473168 2.597899 -3.535534 3.535534 
C -2.597899 4.473168 -1.326016 5 0 5 
z
" style="stroke: #000000"/>
     </defs>
     <g>
      <use xlink:href="#m2744c20bb4" x="669.79375" y="50.77702" style="fill: #ffffff; stroke: #000000"/>
     </g>
    </g>
    <g id="text_5">
     <!-- $\sigma_i = +1$ -->
     <g transform="translate(698.59375 56.37702) scale(0.16 -0.16)">
      <defs>
       <path id="DejaVuSans-Oblique-3c3" d="M 2219 3044 
Q 1744 3044 1422 2700 
Q 1081 2341 969 1747 
Q 844 1119 1044 756 
Q 1241 397 1706 397 
Q 2166 397 2503 759 
Q 2844 1122 2966 1747 
Q 3075 2319 2881 2700 
Q 2700 3044 2219 3044 
z
M 2309 3503 
L 4219 3500 
L 4106 2925 
L 3463 2925 
Q 3706 2438 3575 1747 
Q 3406 888 2884 400 
Q 2359 -91 1609 -91 
Q 856 -91 525 400 
Q 194 888 363 1747 
Q 528 2609 1050 3097 
Q 1484 3503 2309 3503 
z
" transform="scale(0.015625)"/>
       <path id="DejaVuSans-Oblique-69" d="M 1172 4863 
L 1747 4863 
L 1606 4134 
L 1031 4134 
L 1172 4863 
z
M 909 3500 
L 1484 3500 
L 800 0 
L 225 0 
L 909 3500 
z
" transform="scale(0.015625)"/>
       <path id="DejaVuSans-3d" d="M 678 2906 
L 4684 2906 
L 4684 2381 
L 678 2381 
L 678 2906 
z
M 678 1631 
L 4684 1631 
L 4684 1100 
L 678 1100 
L 678 1631 
z
" transform="scale(0.015625)"/>
       <path id="DejaVuSans-2b" d="M 2944 4013 
L 2944 2272 
L 4684 2272 
L 4684 1741 
L 2944 1741 
L 2944 0 
L 2419 0 
L 2419 1741 
L 678 1741 
L 678 2272 
L 2419 2272 
L 2419 4013 
L 2944 4013 
z
" transform="scale(0.015625)"/>
       <path id="DejaVuSans-31" d="M 794 531 
L 1825 531 
L 1825 4091 
L 703 3866 
L 703 4441 
L 1819 4666 
L 2450 4666 
L 2450 531 
L 3481 531 
L 3481 0 
L 794 0 
L 794 531 
z
" transform="scale(0.015625)"/>
      </defs>
      <use xlink:href="#DejaVuSans-Oblique-3c3" transform="translate(0 0.09375)"/>
      <use xlink:href="#DejaVuSans-Oblique-69" transform="translate(63.378906 -16.3125) scale(0.7)"/>
      <use xlink:href="#DejaVuSans-3d" transform="translate(105.043945 0.09375)"/>
      <use xlink:href="#DejaVuSans-2b" transform="translate(227.797852 0.09375)"/>
      <use xlink:href="#DejaVuSans-31" transform="translate(331.069336 0.09375)"/>
     </g>
    </g>
    <g id="line2d_2">
     <path d="M 653.79375 74.26202 
L 669.79375 74.26202 
L 685.79375 74.26202 
" style="fill: none; stroke: #ffffff; stroke-width: 1.5; stroke-linecap: square"/>
     <defs>
      <path id="m625055fad3" d="M 0 5 
C 1.326016 5 2.597899 4.473168 3.535534 3.535534 
C 4.473168 2.597899 5 1.326016 5 0 
C 5 -1.326016 4.473168 -2.597899 3.535534 -3.535534 
C 2.597899 -4.473168 1.326016 -5 0 -5 
C -1.326016 -5 -2.597899 -4.473168 -3.535534 -3.535534 
C -4.473168 -2.597899 -5 -1.326016 -5 0 
C -5 1.326016 -4.473168 2.597899 -3.535534 3.535534 
C -2.597899 4.473168 -1.326016 5 0 5 
z
" style="stroke: #000000"/>
     </defs>
     <g>
      <use xlink:href="#m625055fad3" x="669.79375" y="74.26202" style="stroke: #000000"/>
     </g>
    </g>
    <g id="text_6">
     <!-- $\sigma_i = -1$ -->
     <g transform="translate(698.59375 79.86202) scale(0.16 -0.16)">
      <defs>
       <path id="DejaVuSans-2212" d="M 678 2272 
L 4684 2272 
L 4684 1741 
L 678 1741 
L 678 2272 
z
" transform="scale(0.015625)"/>
      </defs>
      <use xlink:href="#DejaVuSans-Oblique-3c3" transform="translate(0 0.09375)"/>
      <use xlink:href="#DejaVuSans-Oblique-69" transform="translate(63.378906 -16.3125) scale(0.7)"/>
      <use xlink:href="#DejaVuSans-3d" transform="translate(105.043945 0.09375)"/>
      <use xlink:href="#DejaVuSans-2212" transform="translate(227.797852 0.09375)"/>
      <use xlink:href="#DejaVuSans-31" transform="translate(331.069336 0.09375)"/>
     </g>
    </g>
    <g id="line2d_3">
     <path d="M 653.79375 97.74702 
L 669.79375 97.74702 
L 685.79375 97.74702 
" style="fill: none; stroke: #ff4126; stroke-opacity: 0.8; stroke-width: 2; stroke-linecap: square"/>
    </g>
    <g id="text_7">
     <!-- $J_{ij} &gt; 0$ -->
     <g transform="translate(698.59375 103.34702) scale(0.16 -0.16)">
      <defs>
       <path id="DejaVuSans-Oblique-4a" d="M 1069 4666 
L 1703 4666 
L 856 325 
Q 691 -522 298 -901 
Q -94 -1281 -800 -1281 
L -1050 -1281 
L -947 -750 
L -750 -750 
Q -328 -750 -109 -509 
Q 109 -269 225 325 
L 1069 4666 
z
" transform="scale(0.015625)"/>
       <path id="DejaVuSans-Oblique-6a" d="M 928 3500 
L 1503 3500 
L 813 -63 
L 809 -78 
Q 694 -675 544 -897 
Q 403 -1106 132 -1218 
Q -138 -1331 -506 -1331 
L -722 -1331 
L -628 -844 
L -481 -844 
Q -144 -844 -1 -703 
Q 141 -563 238 -63 
L 928 3500 
z
M 1197 4863 
L 1772 4863 
L 1631 4134 
L 1056 4134 
L 1197 4863 
z
" transform="scale(0.015625)"/>
       <path id="DejaVuSans-3e" d="M 678 3150 
L 678 3719 
L 4684 2266 
L 4684 1747 
L 678 294 
L 678 863 
L 3897 2003 
L 678 3150 
z
" transform="scale(0.015625)"/>
       <path id="DejaVuSans-30" d="M 2034 4250 
Q 1547 4250 1301 3770 
Q 1056 3291 1056 2328 
Q 1056 1369 1301 889 
Q 1547 409 2034 409 
Q 2525 409 2770 889 
Q 3016 1369 3016 2328 
Q 3016 3291 2770 3770 
Q 2525 4250 2034 4250 
z
M 2034 4750 
Q 2819 4750 3233 4129 
Q 3647 3509 3647 2328 
Q 3647 1150 3233 529 
Q 2819 -91 2034 -91 
Q 1250 -91 836 529 
Q 422 1150 422 2328 
Q 422 3509 836 4129 
Q 1250 4750 2034 4750 
z
" transform="scale(0.015625)"/>
      </defs>
      <use xlink:href="#DejaVuSans-Oblique-4a" transform="translate(0 0.78125)"/>
      <use xlink:href="#DejaVuSans-Oblique-69" transform="translate(29.492188 -15.625) scale(0.7)"/>
      <use xlink:href="#DejaVuSans-Oblique-6a" transform="translate(48.94043 -15.625) scale(0.7)"/>
      <use xlink:href="#DejaVuSans-3e" transform="translate(90.605469 0.78125)"/>
      <use xlink:href="#DejaVuSans-30" transform="translate(193.876953 0.78125)"/>
     </g>
    </g>
    <g id="line2d_4">
     <path d="M 653.79375 122.86452 
L 669.79375 122.86452 
L 685.79375 122.86452 
" style="fill: none; stroke: #3d26a6; stroke-opacity: 0.8; stroke-width: 2; stroke-linecap: square"/>
    </g>
    <g id="text_8">
     <!-- $J_{ij} &lt; 0$ -->
     <g transform="translate(698.59375 128.46452) scale(0.16 -0.16)">
      <defs>
       <path id="DejaVuSans-3c" d="M 4684 3150 
L 1459 2003 
L 4684 863 
L 4684 294 
L 678 1747 
L 678 2266 
L 4684 3719 
L 4684 3150 
z
" transform="scale(0.015625)"/>
      </defs>
      <use xlink:href="#DejaVuSans-Oblique-4a" transform="translate(0 0.78125)"/>
      <use xlink:href="#DejaVuSans-Oblique-69" transform="translate(29.492188 -15.625) scale(0.7)"/>
      <use xlink:href="#DejaVuSans-Oblique-6a" transform="translate(48.94043 -15.625) scale(0.7)"/>
      <use xlink:href="#DejaVuSans-3c" transform="translate(90.605469 0.78125)"/>
      <use xlink:href="#DejaVuSans-30" transform="translate(193.876953 0.78125)"/>
     </g>
    </g>
   </g>
  </g>
  <g id="axes_3">
   <g id="patch_24">
    <path d="M 812.8125 362.45952 
L 1179 362.45952 
L 1179 29.81952 
L 812.8125 29.81952 
z
" style="fill: #ffffff"/>
   </g>
   <g id="matplotlib.axis_1">
    <g id="xtick_1">
     <g id="line2d_5"/>
    </g>
    <g id="xtick_2">
     <g id="line2d_6"/>
    </g>
    <g id="xtick_3">
     <g id="line2d_7"/>
    </g>
    <g id="xtick_4">
     <g id="line2d_8"/>
    </g>
    <g id="xtick_5">
     <g id="line2d_9"/>
    </g>
    <g id="xtick_6">
     <g id="line2d_10"/>
    </g>
    <g id="xtick_7">
     <g id="line2d_11"/>
    </g>
    <g id="xtick_8">
     <g id="line2d_12"/>
    </g>
    <g id="xtick_9">
     <g id="line2d_13"/>
    </g>
    <g id="text_9">
     <!-- $\vec{\sigma}$ -->
     <g transform="translate(990.14625 383.636707) scale(0.18 -0.18)">
      <defs>
       <path id="DejaVuSans-20d7" d="M -3009 4066 
L -3009 4378 
L -694 4378 
L -1106 4863 
L -713 4863 
L -166 4222 
L -713 3581 
L -1106 3581 
L -694 4066 
L -3009 4066 
z
" transform="scale(0.015625)"/>
      </defs>
      <use xlink:href="#DejaVuSans-20d7" transform="translate(64.860352 12.015625)"/>
      <use xlink:href="#DejaVuSans-Oblique-3c3" transform="translate(0 0.734375)"/>
     </g>
    </g>
   </g>
   <g id="matplotlib.axis_2">
    <g id="ytick_1">
     <g id="line2d_14"/>
    </g>
    <g id="ytick_2">
     <g id="line2d_15"/>
    </g>
    <g id="ytick_3">
     <g id="line2d_16"/>
    </g>
    <g id="ytick_4">
     <g id="line2d_17"/>
    </g>
    <g id="ytick_5">
     <g id="line2d_18"/>
    </g>
    <g id="ytick_6">
     <g id="line2d_19"/>
    </g>
    <g id="ytick_7">
     <g id="line2d_20"/>
    </g>
    <g id="ytick_8">
     <g id="line2d_21"/>
    </g>
    <g id="text_10">
     <!-- $F(\vec{\sigma})$ -->
     <g transform="translate(801.569062 214.04952) rotate(-90) scale(0.18 -0.18)">
      <defs>
       <path id="DejaVuSans-Oblique-46" d="M 1081 4666 
L 3756 4666 
L 3653 4134 
L 1606 4134 
L 1338 2759 
L 3188 2759 
L 3084 2228 
L 1234 2228 
L 800 0 
L 172 0 
L 1081 4666 
z
" transform="scale(0.015625)"/>
       <path id="DejaVuSans-28" d="M 1984 4856 
Q 1566 4138 1362 3434 
Q 1159 2731 1159 2009 
Q 1159 1288 1364 580 
Q 1569 -128 1984 -844 
L 1484 -844 
Q 1016 -109 783 600 
Q 550 1309 550 2009 
Q 550 2706 781 3412 
Q 1013 4119 1484 4856 
L 1984 4856 
z
" transform="scale(0.015625)"/>
       <path id="DejaVuSans-29" d="M 513 4856 
L 1013 4856 
Q 1481 4119 1714 3412 
Q 1947 2706 1947 2009 
Q 1947 1309 1714 600 
Q 1481 -109 1013 -844 
L 513 -844 
Q 928 -128 1133 580 
Q 1338 1288 1338 2009 
Q 1338 2731 1133 3434 
Q 928 4138 513 4856 
z
" transform="scale(0.015625)"/>
      </defs>
      <use xlink:href="#DejaVuSans-Oblique-46" transform="translate(0 0.734375)"/>
      <use xlink:href="#DejaVuSans-28" transform="translate(57.519531 0.734375)"/>
      <use xlink:href="#DejaVuSans-20d7" transform="translate(161.393555 12.015625)"/>
      <use xlink:href="#DejaVuSans-Oblique-3c3" transform="translate(96.533203 0.734375)"/>
      <use xlink:href="#DejaVuSans-29" transform="translate(159.912109 0.734375)"/>
     </g>
    </g>
   </g>
   <g id="line2d_22">
    <path d="M 829.457386 347.338546 
L 846.583218 347.238781 
L 851.476313 347.02943 
L 854.738376 346.714151 
L 857.184923 346.307544 
L 859.631471 345.672971 
L 861.262502 345.072945 
L 862.893534 344.286346 
L 864.524565 343.266068 
L 866.155597 341.956781 
L 867.786628 340.294638 
L 869.41766 338.207351 
L 871.048692 335.614761 
L 872.679723 332.429997 
L 874.310755 328.561343 
L 875.941786 323.914878 
L 877.572818 318.397931 
L 879.20385 311.923346 
L 880.834881 304.414472 
L 882.465913 295.810744 
L 884.096944 286.073631 
L 885.727976 275.192642 
L 887.359007 263.19105 
L 889.805555 243.23483 
L 892.252102 221.298586 
L 896.329681 182.119278 
L 900.40726 143.37637 
L 902.853807 122.468001 
L 904.484839 110.214718 
L 906.115871 99.68321 
L 907.746902 91.155695 
L 908.562418 87.718968 
L 909.377934 84.866962 
L 910.193449 82.61985 
L 911.008965 80.993633 
L 911.824481 79.999948 
L 912.639997 79.645928 
L 913.455513 79.93412 
L 914.271028 80.862449 
L 915.086544 82.424251 
L 915.90206 84.608345 
L 916.717576 87.399171 
L 917.533092 90.776971 
L 919.164123 99.194934 
L 920.795155 109.630184 
L 922.426186 121.802642 
L 924.872734 142.621724 
L 928.134797 173.368227 
L 933.843407 228.035858 
L 936.289955 249.434344 
L 938.736502 268.711964 
L 940.367534 280.215975 
L 941.998565 290.584422 
L 943.629597 299.809854 
L 945.260628 307.91608 
L 946.89166 314.952264 
L 948.522692 320.986908 
L 950.153723 326.102036 
L 951.784755 330.387857 
L 953.415786 333.938082 
L 955.046818 336.84602 
L 956.677849 339.201493 
L 958.308881 341.088546 
L 959.939913 342.583913 
L 961.570944 343.756131 
L 963.201976 344.665211 
L 964.833007 345.362738 
L 967.279555 346.105678 
L 969.726102 346.58586 
L 972.988165 346.961837 
L 977.065744 347.188655 
L 984.405386 347.314673 
L 991.745028 347.336169 
L 991.745028 347.336169 
" clip-path="url(#p51cb0368b0)" style="fill: none; stroke: #ff4126; stroke-width: 2; stroke-linecap: square"/>
   </g>
   <g id="line2d_23">
    <path d="M 1000.067472 347.33952 
L 1012.300208 347.246449 
L 1014.746756 347.004687 
L 1016.377787 346.605488 
L 1017.193303 346.274607 
L 1018.008819 345.815236 
L 1018.824335 345.18668 
L 1019.639851 344.338988 
L 1020.455366 343.212113 
L 1021.270882 341.73541 
L 1022.086398 339.82762 
L 1022.901914 337.39745 
L 1023.717429 334.344889 
L 1024.532945 330.563315 
L 1025.348461 325.942435 
L 1026.163977 320.372037 
L 1026.979493 313.746468 
L 1027.795008 305.969724 
L 1028.610524 296.960984 
L 1030.241556 275.035041 
L 1031.872587 247.846898 
L 1033.503619 215.882399 
L 1035.950166 161.9264 
L 1038.396714 107.92436 
L 1040.027745 77.346524 
L 1040.843261 65.055163 
L 1041.658777 55.339513 
L 1042.474293 48.570226 
L 1043.289808 45.03951 
L 1044.105324 44.93952 
L 1044.92084 48.344961 
L 1045.736356 55.201767 
L 1046.551872 65.323271 
L 1047.367387 78.394585 
L 1048.998419 111.568473 
L 1053.891514 224.194677 
L 1054.707029 238.649252 
L 1055.522545 250.643086 
L 1056.338061 259.905519 
L 1057.153577 266.259822 
L 1057.969093 269.622127 
L 1058.784608 269.999111 
L 1059.600124 267.485295 
L 1060.41564 262.260373 
L 1061.231156 254.586408 
L 1062.046672 244.8043 
L 1063.677703 220.639166 
L 1066.939766 168.85365 
L 1067.755282 158.518527 
L 1068.570798 150.270267 
L 1069.386314 144.502613 
L 1070.201829 141.498523 
L 1071.017345 141.414333 
L 1071.832861 144.271768 
L 1072.648377 149.958749 
L 1073.463893 158.239017 
L 1074.279408 168.769723 
L 1075.91044 194.825501 
L 1079.988019 266.38791 
L 1081.619051 288.951612 
L 1082.434566 297.883371 
L 1083.250082 305.087159 
L 1084.065598 310.503338 
L 1084.881114 314.109137 
L 1085.696629 315.909718 
L 1086.512145 315.931672 
L 1087.327661 314.219701 
L 1088.143177 310.836717 
L 1088.958693 305.867051 
L 1089.774208 299.422024 
L 1090.589724 291.646711 
L 1092.220756 272.891897 
L 1096.298335 221.078835 
L 1097.113851 212.780073 
L 1097.929366 206.023852 
L 1098.744882 201.098752 
L 1099.560398 198.217747 
L 1100.375914 197.502883 
L 1101.191429 198.975637 
L 1102.006945 202.553889 
L 1102.822461 208.055731 
L 1103.637977 215.20963 
L 1105.269008 233.035157 
L 1107.715556 262.15579 
L 1108.531072 270.73919 
L 1109.346587 278.08664 
L 1110.162103 283.85345 
L 1110.977619 287.745764 
L 1111.793135 289.525493 
L 1112.60865 289.01433 
L 1113.424166 286.097716 
L 1114.239682 280.729341 
L 1115.055198 272.936302 
L 1115.870714 262.824497 
L 1116.686229 250.583341 
L 1118.317261 220.901225 
L 1122.39484 138.022024 
L 1123.210356 124.427408 
L 1124.025872 113.08706 
L 1124.841387 104.408819 
L 1125.656903 98.688325 
L 1126.472419 96.093732 
L 1127.287935 96.659364 
L 1128.10345 100.288844 
L 1128.918966 106.767156 
L 1129.734482 115.780232 
L 1130.549998 126.939902 
L 1132.181029 153.942455 
L 1137.074124 242.96729 
L 1138.705156 267.782852 
L 1140.336187 288.546833 
L 1141.967219 305.246034 
L 1143.59825 318.19479 
L 1144.413766 323.409758 
L 1145.229282 327.874737 
L 1146.044798 331.659902 
L 1146.860314 334.835789 
L 1147.675829 337.471934 
L 1148.491345 339.635694 
L 1149.306861 341.391215 
L 1150.122377 342.798541 
L 1150.937893 343.912908 
L 1151.753408 344.784225 
L 1152.568924 345.456779 
L 1154.199956 346.354347 
L 1155.830987 346.849145 
L 1157.462019 347.107534 
L 1159.908566 347.270995 
L 1162.355114 347.321528 
L 1162.355114 347.321528 
" clip-path="url(#p51cb0368b0)" style="fill: none; stroke: #3d26a6; stroke-width: 2; stroke-linecap: square"/>
   </g>
   <g id="patch_25">
    <path d="M 812.8125 362.45952 
L 812.8125 29.81952 
" style="fill: none; stroke: #000000; stroke-width: 2; stroke-linejoin: miter; stroke-linecap: square"/>
   </g>
   <g id="patch_26">
    <path d="M 812.8125 362.45952 
L 1179 362.45952 
" style="fill: none; stroke: #000000; stroke-width: 2; stroke-linejoin: miter; stroke-linecap: square"/>
   </g>
   <g id="text_11">
    <!-- C -->
    <g transform="translate(812.8125 23.81952) scale(0.2 -0.2)">
     <defs>
      <path id="DejaVuSans-Bold-43" d="M 4288 256 
Q 3956 84 3597 -3 
Q 3238 -91 2847 -91 
Q 1681 -91 1000 561 
Q 319 1213 319 2328 
Q 319 3447 1000 4098 
Q 1681 4750 2847 4750 
Q 3238 4750 3597 4662 
Q 3956 4575 4288 4403 
L 4288 3438 
Q 3953 3666 3628 3772 
Q 3303 3878 2944 3878 
Q 2300 3878 1931 3465 
Q 1563 3053 1563 2328 
Q 1563 1606 1931 1193 
Q 2300 781 2944 781 
Q 3303 781 3628 887 
Q 3953 994 4288 1222 
L 4288 256 
z
" transform="scale(0.015625)"/>
     </defs>
     <use xlink:href="#DejaVuSans-Bold-43"/>
    </g>
   </g>
   <g id="legend_2">
    <g id="line2d_24">
     <path d="M 1067.22 53.57952 
L 1085.22 53.57952 
L 1103.22 53.57952 
" style="fill: none; stroke: #ff4126; stroke-width: 2; stroke-linecap: square"/>
    </g>
    <g id="text_12">
     <!-- $\beta=0$ -->
     <g transform="translate(1117.62 59.87952) scale(0.18 -0.18)">
      <defs>
       <path id="DejaVuSans-Oblique-3b2" d="M 872 216 
L 572 -1331 
L -6 -1331 
L 928 3478 
Q 1206 4903 2538 4903 
Q 3888 4903 3659 3700 
Q 3503 2844 2894 2531 
Q 3713 2250 3553 1416 
Q 3272 -69 1759 -66 
Q 1097 -63 872 216 
z
M 1019 966 
Q 1259 422 1875 425 
Q 2775 425 2966 1406 
Q 3138 2288 1675 2219 
L 1778 2750 
Q 2909 2731 3106 3750 
Q 3241 4438 2509 4434 
Q 1691 4434 1503 3459 
L 1019 966 
z
" transform="scale(0.015625)"/>
      </defs>
      <use xlink:href="#DejaVuSans-Oblique-3b2" transform="translate(0 0.390625)"/>
      <use xlink:href="#DejaVuSans-3d" transform="translate(83.300781 0.390625)"/>
      <use xlink:href="#DejaVuSans-30" transform="translate(186.572266 0.390625)"/>
     </g>
    </g>
    <g id="line2d_25">
     <path d="M 1067.22 80.21952 
L 1085.22 80.21952 
L 1103.22 80.21952 
" style="fill: none; stroke: #3d26a6; stroke-width: 2; stroke-linecap: square"/>
    </g>
    <g id="text_13">
     <!-- $\beta=1$ -->
     <g transform="translate(1117.62 86.51952) scale(0.18 -0.18)">
      <use xlink:href="#DejaVuSans-Oblique-3b2" transform="translate(0 0.390625)"/>
      <use xlink:href="#DejaVuSans-3d" transform="translate(83.300781 0.390625)"/>
      <use xlink:href="#DejaVuSans-31" transform="translate(186.572266 0.390625)"/>
     </g>
    </g>
   </g>
  </g>
 </g>
 <defs>
  <clipPath id="p6ff37b9ae6">
   <rect x="7.2" y="29.81952" width="366.1875" height="332.64"/>
  </clipPath>
  <clipPath id="pda72ef0b99">
   <rect x="410.00625" y="29.81952" width="366.1875" height="332.64"/>
  </clipPath>
  <clipPath id="p51cb0368b0">
   <rect x="812.8125" y="29.81952" width="366.1875" height="332.64"/>
  </clipPath>
 </defs>
</svg>
